<svg width="360" height="178" viewBox="0 0 360 178" fill="none" xmlns="http://www.w3.org/2000/svg">
<path d="M180 88.9706C180 65.5439 170.518 43.0766 153.64 26.5114C136.761 9.94614 113.869 0.639894 90 0.639893C66.1305 0.639891 43.2387 9.94614 26.3604 26.5114C9.48212 43.0766 3.60419e-06 65.5439 0 88.9706L90 88.9706H180Z" fill="#4354F2"/>
<path d="M180 88.9706C180 112.397 189.482 134.865 206.36 151.43C223.239 167.995 246.131 177.301 270 177.301C293.869 177.301 316.761 167.995 333.64 151.43C350.518 134.865 360 112.397 360 88.9706L270 88.9706L180 88.9706Z" fill="#4354F2"/>
</svg>
