<svg width="360" height="178" viewBox="0 0 360 178" fill="none" xmlns="http://www.w3.org/2000/svg">
<path d="M180 88.9706C180 65.5439 170.518 43.0766 153.64 26.5114C136.761 9.94614 113.869 0.639894 90 0.639893C66.1305 0.639891 43.2387 9.94614 26.3604 26.5114C9.48212 43.0766 3.60419e-06 65.5439 0 88.9706L90 88.9706H180Z" fill="#4354F2"/>
<path d="M180 88.9706C180 112.397 189.482 134.865 206.36 151.43C223.239 167.995 246.131 177.301 270 177.301C293.869 177.301 316.761 167.995 333.64 151.43C350.518 134.865 360 112.397 360 88.9706L270 88.9706L180 88.9706Z" fill="#4354F2"/>
<path d="M69.4 75.2271C63.7333 75.2271 59.404 73.0965 56.412 68.8351C53.42 64.5285 51.924 58.4085 51.924 50.4751C51.924 42.4511 53.42 36.3538 56.412 32.1831C59.404 28.0125 63.7333 25.9271 69.4 25.9271C75.112 25.9271 79.4413 28.0125 82.388 32.1831C85.38 36.3538 86.876 42.4285 86.876 50.4071C86.876 58.3858 85.38 64.5285 82.388 68.8351C79.396 73.0965 75.0667 75.2271 69.4 75.2271ZM69.4 68.0871C72.4827 68.0871 74.7493 66.6591 76.2 63.8031C77.696 60.9471 78.444 56.4818 78.444 50.4071C78.444 44.3325 77.696 39.9351 76.2 37.2151C74.7493 34.4498 72.4827 33.0671 69.4 33.0671C66.3627 33.0671 64.096 34.4498 62.6 37.2151C61.104 39.9351 60.356 44.3325 60.356 50.4071C60.356 56.4818 61.104 60.9471 62.6 63.8031C64.096 66.6591 66.3627 68.0871 69.4 68.0871ZM100.381 74.5471C97.8881 74.5471 96.6414 73.3231 96.6414 70.8751C96.6414 68.5178 97.8881 67.3391 100.381 67.3391H107.997V36.5351L102.217 40.0031C101.129 40.6378 100.132 40.7965 99.2254 40.4791C98.3641 40.1618 97.7068 39.5951 97.2534 38.7791C96.8001 37.9631 96.6641 37.0791 96.8454 36.1271C97.0268 35.1298 97.6614 34.3138 98.7494 33.6791L108.133 28.0351C109.04 27.4911 109.947 27.0378 110.853 26.6751C111.76 26.2671 112.599 26.0631 113.369 26.0631C114.321 26.0631 115.115 26.3351 115.749 26.8791C116.384 27.3778 116.701 28.2164 116.701 29.3951V67.3391H123.637C126.131 67.3391 127.377 68.5178 127.377 70.8751C127.377 73.3231 126.131 74.5471 123.637 74.5471H100.381Z" fill="white"/>
<path d="M249.4 154.625C243.733 154.625 239.404 152.54 236.412 148.369C233.42 144.153 231.924 138.033 231.924 130.009C231.924 122.03 233.42 115.956 236.412 111.785C239.404 107.569 243.733 105.461 249.4 105.461C255.067 105.461 259.396 107.569 262.388 111.785C265.38 115.956 266.876 122.03 266.876 130.009C266.876 137.988 265.38 144.085 262.388 148.301C259.396 152.517 255.067 154.625 249.4 154.625ZM249.4 147.757C252.483 147.757 254.727 146.352 256.132 143.541C257.537 140.685 258.24 136.174 258.24 130.009C258.24 123.798 257.537 119.31 256.132 116.545C254.727 113.734 252.483 112.329 249.4 112.329C246.317 112.329 244.073 113.734 242.668 116.545C241.263 119.356 240.56 123.844 240.56 130.009C240.56 136.174 241.263 140.685 242.668 143.541C244.073 146.352 246.317 147.757 249.4 147.757ZM303.637 146.941C306.357 146.941 307.717 148.097 307.717 150.409C307.717 152.812 306.357 154.013 303.637 154.013H277.797C276.619 154.013 275.689 153.673 275.009 152.993C274.329 152.268 273.989 151.384 273.989 150.341C273.989 148.981 274.511 147.757 275.553 146.669L291.057 130.009C292.961 127.924 294.344 126.02 295.205 124.297C296.112 122.529 296.565 120.784 296.565 119.061C296.565 116.93 295.953 115.298 294.729 114.165C293.505 113.032 291.76 112.465 289.493 112.465C287.635 112.465 285.821 112.828 284.053 113.553C282.331 114.233 280.585 115.185 278.817 116.409C278.364 116.726 277.911 116.998 277.457 117.225C277.004 117.406 276.551 117.497 276.097 117.497C275.327 117.497 274.647 117.134 274.057 116.409C273.513 115.684 273.241 114.822 273.241 113.825C273.241 113.145 273.355 112.556 273.581 112.057C273.853 111.558 274.261 111.082 274.805 110.629C276.8 109.042 279.135 107.796 281.809 106.889C284.484 105.937 287.159 105.461 289.833 105.461C294.503 105.461 298.22 106.64 300.985 108.997C303.796 111.354 305.201 114.528 305.201 118.517C305.201 121.282 304.612 123.889 303.433 126.337C302.255 128.74 300.26 131.437 297.449 134.429L285.685 146.941H303.637Z" fill="white"/>
</svg>
