<svg width="85" height="86" viewBox="0 0 85 86" fill="none" xmlns="http://www.w3.org/2000/svg">
<circle cx="42.5" cy="42.9219" r="42.5" fill="#7784F8"/>
<g clip-path="url(#clip0_1:2919)">
<path d="M62.1406 30.2383V24.2812H56.1836C56.1836 21.0504 53.5551 18.4219 50.3242 18.4219C47.0934 18.4219 44.4648 21.0504 44.4648 24.2812H40.0703C27.9238 24.2812 18 34.2063 18 46.3516C18 58.498 27.925 68.4219 40.0703 68.4219C52.2168 68.4219 62.1406 58.4969 62.1406 46.3516V41.957C65.3715 41.957 68 39.3285 68 36.0977C68 32.8668 65.3715 30.2383 62.1406 30.2383ZM38.6055 27.2665V34.0345C40.3717 33.4447 40.7271 33.168 41.5352 33.168C43.1506 33.168 44.4648 34.4822 44.4648 36.0977C44.4648 37.7131 43.1506 39.0273 41.5352 39.0273C40.7259 39.0273 40.3665 38.7489 38.6055 38.1608V44.8867H35.6758C35.6758 41.6559 33.0473 39.0273 29.8164 39.0273C26.5855 39.0273 23.957 41.6559 23.957 44.8867H20.9853C21.6991 35.4979 29.2166 27.9804 38.6055 27.2665ZM20.9853 47.8164H27.7534C27.1629 46.0485 26.8867 45.6948 26.8867 44.8867C26.8867 43.2713 28.201 41.957 29.8164 41.957C31.4318 41.957 32.7461 43.2713 32.7461 44.8867C32.7461 45.6948 32.4695 46.0495 31.8794 47.8164H38.6055V50.7461C35.3746 50.7461 32.7461 53.3746 32.7461 56.6055C32.7461 59.8363 35.3746 62.4648 38.6055 62.4648V65.4366C29.2166 64.7228 21.6991 57.2053 20.9853 47.8164ZM41.5352 65.4366V58.6687C39.7689 59.2584 39.4136 59.5352 38.6055 59.5352C36.99 59.5352 35.6758 58.2209 35.6758 56.6055C35.6758 54.99 36.99 53.6758 38.6055 53.6758C39.4147 53.6758 39.7741 53.9542 41.5352 54.5423V47.8164H44.4648C44.4648 51.0473 47.0934 53.6758 50.3242 53.6758C53.5551 53.6758 56.1836 51.0463 56.1836 47.8154L59.1554 47.8164C58.4415 57.2053 50.924 64.7228 41.5352 65.4366ZM62.1406 39.0273C61.4764 39.0273 60.973 38.7252 59.2109 38.1206V44.8867H52.3872C52.9776 46.6546 53.2539 47.0083 53.2539 47.8164C53.2539 49.4318 51.9396 50.7461 50.3242 50.7461C48.7088 50.7461 47.3945 49.4318 47.3945 47.8164C47.3945 47.0083 47.6711 46.6536 48.2612 44.8867H41.5352V41.957C44.766 41.957 47.3945 39.3285 47.3945 36.0977C47.3945 32.8668 44.766 30.2383 41.5352 30.2383V27.2109H48.3013C47.7035 25.4686 47.3945 24.9451 47.3945 24.2812C47.3945 22.6658 48.7088 21.3516 50.3242 21.3516C51.9396 21.3516 53.2539 22.6658 53.2539 24.2812C53.2539 24.9457 52.9514 25.4498 52.3472 27.2109H59.2109V34.0747C60.9533 33.4769 61.4768 33.168 62.1406 33.168C63.7561 33.168 65.0703 34.4822 65.0703 36.0977C65.0703 37.7131 63.7561 39.0273 62.1406 39.0273Z" fill="#FFB27D"/>
</g>
<defs>
<clipPath id="clip0_1:2919">
<rect width="50" height="50" fill="white" transform="translate(18 18.4219)"/>
</clipPath>
</defs>
</svg>
