<svg width="85" height="86" viewBox="0 0 85 86" fill="none" xmlns="http://www.w3.org/2000/svg">
<circle cx="42.5" cy="42.9219" r="42.5" fill="#7784F8"/>
<path d="M60.75 40.2969V34.0469H57.625V40.2969H51.375V43.4219H57.625V49.6719H60.75V43.4219H67V40.2969H60.75Z" fill="#FFB27D"/>
<path d="M32.625 40.2969V46.5469H41.4656C40.175 50.1844 36.7 52.7969 32.625 52.7969C27.4563 52.7969 23.25 48.5906 23.25 43.4219C23.25 38.2531 27.4563 34.0469 32.625 34.0469C34.8656 34.0469 37.0219 34.85 38.6969 36.3094L42.8031 31.5969C39.9906 29.1469 36.3781 27.7969 32.625 27.7969C24.0094 27.7969 17 34.8063 17 43.4219C17 52.0375 24.0094 59.0469 32.625 59.0469C41.2406 59.0469 48.25 52.0375 48.25 43.4219V40.2969H32.625Z" fill="#FFB27D"/>
</svg>
