<svg width="85" height="86" viewBox="0 0 85 86" fill="none" xmlns="http://www.w3.org/2000/svg">
<circle cx="42.5" cy="42.9219" r="42.5" fill="#7784F8"/>
<g clip-path="url(#clip0_1:2891)">
<path d="M43 51.7227C47.5844 51.7227 51.3008 48.0063 51.3008 43.4219C51.3008 38.8375 47.5844 35.1211 43 35.1211C38.4156 35.1211 34.6992 38.8375 34.6992 43.4219C34.6992 48.0063 38.4156 51.7227 43 51.7227Z" fill="#FFB27D"/>
<path d="M32.0285 41.0207C33.1312 35.9782 37.6312 32.1914 42.9997 32.1914H65.3494C64.1636 29.8372 62.5955 27.6623 60.6774 25.7441C55.9555 21.0224 49.6774 18.4219 42.9997 18.4219C36.322 18.4219 30.0439 21.0224 25.322 25.7441C24.8679 26.1982 24.4339 26.667 24.0195 27.1488L32.0285 41.0207Z" fill="#FFB27D"/>
<path d="M46.4062 54.1237C45.3314 54.4666 44.187 54.6523 43 54.6523C38.8283 54.6523 35.1809 52.3658 33.2443 48.9803C33.2305 48.9589 33.2167 48.9376 33.2038 48.9153L22.1026 29.6875C19.4337 33.7305 18 38.4658 18 43.4219C18 50.0996 20.6005 56.3776 25.3223 61.0996C28.9397 64.717 33.471 67.0875 38.3951 67.9994L46.4062 54.1237Z" fill="#FFB27D"/>
<path d="M50.5566 35.1211C52.8126 37.1766 54.2306 40.1367 54.2306 43.4219C54.2306 45.4881 53.669 47.4253 52.6915 49.0902C52.6815 49.1094 52.6729 49.1288 52.6621 49.1477L41.5586 68.3797C42.0368 68.4066 42.5173 68.4219 43.0001 68.4219C49.6778 68.4219 55.9559 65.8214 60.6778 61.0996C65.3996 56.3776 68.0001 50.0996 68.0001 43.4219C68.0001 40.5502 67.5179 37.7529 66.5942 35.1211H50.5566Z" fill="#FFB27D"/>
</g>
<defs>
<clipPath id="clip0_1:2891">
<rect width="50" height="50" fill="white" transform="translate(18 18.4219)"/>
</clipPath>
</defs>
</svg>
