<svg width="52" height="51" viewBox="0 0 52 51" fill="none" xmlns="http://www.w3.org/2000/svg">
<path d="M14.5217 18.0682C17.9528 20.974 23.9735 26.0862 25.743 27.6802C25.9805 27.8953 26.2353 28.0047 26.4998 28.0047C26.7638 28.0047 27.0181 27.8963 27.2551 27.6822C29.0262 26.0867 35.0468 20.974 38.478 18.0682C38.6916 17.8876 38.7242 17.5702 38.5512 17.3495C38.1514 16.8394 37.5553 16.5469 36.9165 16.5469H16.0832C15.4444 16.5469 14.8482 16.8394 14.4485 17.3495C14.2755 17.5702 14.3081 17.8876 14.5217 18.0682Z" fill="#FFB27D"/>
<path d="M38.6979 19.6429C38.5133 19.557 38.2961 19.587 38.1425 19.7182C34.3374 22.9439 29.4811 27.0786 27.9531 28.4554C27.0956 29.2295 25.9054 29.2295 25.0458 28.4543C23.4172 26.987 17.9637 22.3508 14.8575 19.7182C14.7029 19.5869 14.4852 19.558 14.3021 19.6429C14.118 19.7284 14 19.9125 14 20.1154V33.2136C14 34.3626 14.9343 35.2969 16.0833 35.2969H36.9167C38.0657 35.2969 39 34.3626 39 33.2136V20.1154C39 19.9125 38.882 19.7279 38.6979 19.6429Z" fill="#FFB27D"/>
<path d="M51 25.4219C51 38.6401 39.8444 49.4219 26 49.4219C12.1556 49.4219 1 38.6401 1 25.4219C1 12.2036 12.1556 1.42188 26 1.42188C39.8444 1.42188 51 12.2036 51 25.4219Z" stroke="#FFB27D" stroke-width="2"/>
</svg>
