<svg width="85" height="86" viewBox="0 0 85 86" fill="none" xmlns="http://www.w3.org/2000/svg">
<circle cx="42.5" cy="42.9219" r="42.5" fill="#7784F8"/>
<g clip-path="url(#clip0_1:2901)">
<path d="M25.6645 52.4029L24.5117 49.7105L37.0361 44.3848L38.1893 47.0768L25.6645 52.4029Z" fill="#FFB27D"/>
<path d="M60.3811 49.7657L48.2515 46.3386L49.0754 43.5264L61.2054 46.9535L60.3811 49.7657Z" fill="#FFB27D"/>
<path d="M44.7436 58.6471L42.7954 49.4602L45.6591 48.8448L47.6077 58.0322L44.7436 58.6471Z" fill="#FFB27D"/>
<path d="M28.5289 26.8794L39.8929 38.243L37.8215 40.3144L26.4575 28.9508L28.5289 26.8794Z" fill="#FFB27D"/>
<path d="M57.9973 26.3523L60.0687 28.4237L48.1783 40.3145L46.1069 38.2431L57.9973 26.3523Z" fill="#FFB27D"/>
<path d="M43 36.0977C38.9572 36.0977 35.6758 39.3791 35.6758 43.4219C35.6758 47.4647 38.9572 50.7461 43 50.7461C47.0428 50.7461 50.3242 47.4647 50.3242 43.4219C50.3242 39.3791 47.0428 36.0977 43 36.0977Z" fill="#FFB27D"/>
<path d="M50.3242 43.4219C50.3242 47.4647 47.0428 50.7461 43 50.7461V36.0977C47.0428 36.0977 50.3242 39.3791 50.3242 43.4219Z" fill="#FFB27D"/>
<path d="M63.6055 53.5781C61.1824 53.5781 59.2109 51.6067 59.2109 49.1836C59.2109 46.7605 61.1824 44.7891 63.6055 44.7891C66.0286 44.7891 68 46.7605 68 49.1836C68 51.6067 66.0286 53.5781 63.6055 53.5781Z" fill="#FFB27D"/>
<path d="M62.1406 30.1406C58.9092 30.1406 56.2812 27.5127 56.2812 24.2812C56.2812 21.0498 58.9092 18.4219 62.1406 18.4219C65.3721 18.4219 68 21.0498 68 24.2812C68 27.5127 65.3721 30.1406 62.1406 30.1406Z" fill="#FFB27D"/>
<path d="M47.3945 68.4219C44.1631 68.4219 41.5352 65.7939 41.5352 62.5625C41.5352 59.3311 44.1631 56.7031 47.3945 56.7031C50.626 56.7031 53.2539 59.3311 53.2539 62.5625C53.2539 65.7939 50.626 68.4219 47.3945 68.4219Z" fill="#FFB27D"/>
<path d="M22.3945 56.6055C19.9714 56.6055 18 54.634 18 52.2109C18 49.7878 19.9714 47.8164 22.3945 47.8164C24.8176 47.8164 26.7891 49.7878 26.7891 52.2109C26.7891 54.634 24.8176 56.6055 22.3945 56.6055Z" fill="#FFB27D"/>
<path d="M25.4219 30.2383C22.9988 30.2383 21.0273 28.2668 21.0273 25.8438C21.0273 23.4207 22.9988 21.4492 25.4219 21.4492C27.845 21.4492 29.8164 23.4207 29.8164 25.8438C29.8164 28.2668 27.845 30.2383 25.4219 30.2383Z" fill="#FFB27D"/>
</g>
<defs>
<clipPath id="clip0_1:2901">
<rect width="50" height="50" fill="white" transform="translate(18 18.4219)"/>
</clipPath>
</defs>
</svg>
