<svg width="85" height="86" viewBox="0 0 85 86" fill="none" xmlns="http://www.w3.org/2000/svg">
<circle cx="42.5" cy="42.9219" r="42.5" fill="#7784F8"/>
<g clip-path="url(#clip0_1:2884)">
<path d="M53.3846 63.0261L52.686 65.8819C50.5901 66.7092 48.9159 67.3388 47.6693 67.7716C46.4212 68.2059 44.9711 68.4219 43.3189 68.4219C40.7816 68.4219 38.8081 67.8003 37.4006 66.5658C35.993 65.3263 35.289 63.7556 35.289 61.8502C35.289 61.1126 35.3401 60.3539 35.4463 59.5809C35.5534 58.807 35.7237 57.9354 35.9567 56.9612L38.576 47.6905C38.809 46.8027 39.0071 45.9616 39.1657 45.1662C39.3266 44.3757 39.4041 43.6484 39.4041 42.9937C39.4041 41.8098 39.159 40.9816 38.671 40.516C38.183 40.0518 37.2518 39.8161 35.8693 39.8161C35.1922 39.8161 34.4963 39.9245 33.7869 40.1342C33.0744 40.3449 32.4654 40.5483 31.9541 40.7374L32.6545 37.8793C34.3704 37.1807 36.0105 36.5824 37.5794 36.0859C39.1482 35.588 40.6306 35.3389 42.0328 35.3389C44.5526 35.3389 46.497 35.9479 47.8624 37.1659C49.2278 38.3848 49.9103 39.9648 49.9103 41.9119C49.9103 42.3148 49.8655 43.0246 49.7692 44.0392C49.675 45.0559 49.4998 45.9876 49.2444 46.835L46.6363 56.0685C46.4226 56.8102 46.2303 57.658 46.0632 58.6121C45.8907 59.5598 45.8082 60.284 45.8082 60.7698C45.8082 61.9958 46.0816 62.8329 46.6296 63.2779C47.1817 63.7229 48.1326 63.9442 49.4832 63.9442C50.1173 63.9442 50.8388 63.8318 51.6405 63.6108C52.44 63.3899 53.023 63.1959 53.3846 63.0261ZM54.046 24.2609C54.046 25.8696 53.4397 27.2436 52.2213 28.3733C51.006 29.507 49.5415 30.0744 47.8283 30.0744C46.1098 30.0744 44.6418 29.507 43.4126 28.3733C42.1856 27.2431 41.5708 25.8696 41.5708 24.2609C41.5708 22.6553 42.1856 21.2791 43.4126 20.135C44.6395 18.9928 46.1102 18.4219 47.8283 18.4219C49.5411 18.4219 51.006 18.9941 52.2213 20.135C53.4406 21.2791 54.046 22.6557 54.046 24.2609Z" fill="#FFB27D"/>
</g>
<defs>
<clipPath id="clip0_1:2884">
<rect width="50" height="50" fill="white" transform="translate(18 18.4219)"/>
</clipPath>
</defs>
</svg>
