<svg width="153" height="53" viewBox="0 0 153 53" fill="none" xmlns="http://www.w3.org/2000/svg">
<path d="M0 51.8815V1.67081H6.81165V51.8815H0ZM11.8588 26.7044C11.8588 23.0222 12.3846 19.6032 13.4362 16.4471C14.5356 13.291 16.0892 10.5653 18.0968 8.26994C20.1523 5.92678 22.6379 4.10962 25.5538 2.81849C28.4696 1.47955 31.7918 0.810059 35.5203 0.810059C39.201 0.810059 42.4993 1.50343 45.4151 2.89022C48.3788 4.22916 50.8644 6.07024 52.872 8.4134C54.9273 10.7566 56.5048 13.5062 57.6043 16.6623C58.7039 19.7706 59.2535 23.118 59.2535 26.7044C59.2535 30.2909 58.7039 33.6622 57.6043 36.8183C56.5528 39.9744 54.999 42.7478 52.9437 45.1389C50.8884 47.482 48.4025 49.347 45.4868 50.7339C42.571 52.0727 39.2487 52.7423 35.5203 52.7423C31.7918 52.7423 28.4696 52.0727 25.5538 50.7339C22.6379 49.347 20.1523 47.482 18.0968 45.1389C16.0892 42.7478 14.5356 39.9744 13.4362 36.8183C12.3846 33.6622 11.8588 30.2909 11.8588 26.7044ZM18.8138 26.7044C18.8138 29.2867 19.1723 31.7972 19.8893 34.236C20.6542 36.6749 21.7536 38.8267 23.1876 40.6917C24.6216 42.5567 26.3664 44.063 28.4218 45.2107C30.5251 46.3106 32.8912 46.8605 35.5203 46.8605C38.2926 46.8605 40.7068 46.3583 42.7621 45.3541C44.8655 44.3022 46.61 42.8913 47.9963 41.1221C49.4303 39.3048 50.5059 37.177 51.2229 34.7382C51.9399 32.2516 52.2984 29.5736 52.2984 26.7044C52.2984 24.1222 51.9159 21.6357 51.1512 19.2446C50.3865 16.8536 49.2869 14.7256 47.8529 12.8606C46.4189 10.9957 44.6504 9.51326 42.547 8.4134C40.4917 7.26572 38.1492 6.69188 35.5203 6.69188C32.8912 6.69188 30.5251 7.21791 28.4218 8.26994C26.3664 9.27415 24.6216 10.6848 23.1876 12.502C21.7536 14.2713 20.6542 16.3754 19.8893 18.8142C19.1723 21.253 18.8138 23.883 18.8138 26.7044Z" fill="black"/>
<path d="M67.0591 31.7972V20.4998H68.5917V31.7972H67.0591ZM72.954 22.4688V31.7972H71.5021V20.4998H73.5348L78.5199 29.8928V20.4998H79.9718V31.7972H77.9713L72.954 22.4688ZM81.5862 20.9033L83.0865 20.3223L86.6358 30.1188L90.2011 20.3707L91.5885 20.9033L87.4585 31.7972H85.7323L81.5862 20.9033ZM93.1961 20.4998H99.9719V21.8232H94.7287V25.2609H99.2459V26.552H94.7287V30.4738H99.9719V31.7972H93.1961V20.4998ZM103.597 22.4688V31.7972H102.145V20.4998H104.178L109.163 29.8928V20.4998H110.615V31.7972H108.614L103.597 22.4688ZM112.229 20.4998H120.699V21.8555H117.23V31.7972H115.698V21.8555H112.229V20.4998ZM121.177 26.1324C121.177 25.3039 121.296 24.5346 121.532 23.8245C121.78 23.1144 122.129 22.5011 122.581 21.9846C123.043 21.4574 123.603 21.0486 124.259 20.758C124.915 20.4568 125.662 20.3062 126.501 20.3062C127.329 20.3062 128.071 20.4622 128.727 20.7742C129.394 21.0755 129.954 21.4897 130.405 22.0169C130.868 22.5441 131.223 23.1628 131.47 23.8729C131.717 24.5723 131.841 25.3254 131.841 26.1324C131.841 26.9393 131.717 27.6979 131.47 28.408C131.233 29.1181 130.884 29.7422 130.421 30.2801C129.959 30.8074 129.4 31.227 128.744 31.539C128.088 31.8403 127.34 31.9909 126.501 31.9909C125.662 31.9909 124.915 31.8403 124.259 31.539C123.603 31.227 123.043 30.8074 122.581 30.2801C122.129 29.7422 121.78 29.1181 121.532 28.408C121.296 27.6979 121.177 26.9393 121.177 26.1324ZM122.742 26.1324C122.742 26.7134 122.823 27.2783 122.984 27.827C123.156 28.3757 123.404 28.8599 123.726 29.2795C124.049 29.6991 124.441 30.0381 124.904 30.2963C125.377 30.5438 125.91 30.6675 126.501 30.6675C127.125 30.6675 127.668 30.5545 128.131 30.3286C128.604 30.0919 128.996 29.7745 129.308 29.3764C129.631 28.9675 129.873 28.4887 130.034 27.94C130.196 27.3805 130.276 26.778 130.276 26.1324C130.276 25.5514 130.19 24.9919 130.018 24.4539C129.846 23.9159 129.599 23.4371 129.276 23.0175C128.953 22.5979 128.555 22.2644 128.082 22.0169C127.62 21.7587 127.093 21.6296 126.501 21.6296C125.91 21.6296 125.377 21.7479 124.904 21.9846C124.441 22.2106 124.049 22.528 123.726 22.9368C123.404 23.3349 123.156 23.8083 122.984 24.3571C122.823 24.9058 122.742 25.4976 122.742 26.1324ZM140.678 31.9909L139.274 28.9245C138.919 28.1605 138.473 27.6172 137.935 27.2944C137.397 26.9716 136.709 26.8102 135.87 26.8102H135.628V31.7972H134.095V20.5321C134.676 20.4783 135.219 20.4406 135.725 20.4191C136.241 20.3868 136.8 20.3707 137.403 20.3707C138.091 20.3707 138.693 20.446 139.209 20.5967C139.726 20.7365 140.156 20.941 140.5 21.2099C140.844 21.4789 141.102 21.7963 141.274 22.1622C141.457 22.528 141.549 22.9315 141.549 23.3726C141.549 24.158 141.312 24.7928 140.839 25.277C140.376 25.7504 139.704 26.1055 138.822 26.3422C139.037 26.439 139.236 26.552 139.419 26.6811C139.602 26.7995 139.774 26.9501 139.935 27.133C140.097 27.3052 140.253 27.515 140.403 27.7624C140.565 28.0099 140.726 28.3112 140.887 28.6662L142.113 31.313L140.678 31.9909ZM137.403 21.6618C137.037 21.6618 136.709 21.6672 136.419 21.678C136.128 21.6887 135.865 21.7049 135.628 21.7264V25.5191H137.403C138.177 25.5191 138.806 25.3469 139.29 25.0026C139.774 24.6583 140.016 24.1634 140.016 23.5178C140.016 22.9799 139.79 22.5387 139.339 22.1944C138.887 21.8394 138.242 21.6618 137.403 21.6618ZM146.938 26.084L150.326 20.4191L151.536 21.1292L147.648 27.5042V31.7972H146.115V27.5042L142.195 21.1292L143.485 20.3546L146.938 26.084Z" fill="black"/>
<path d="M66.4136 43.3477C66.4136 42.5192 66.5319 41.7499 66.7685 41.0398C67.0159 40.3297 67.3654 39.7164 67.8171 39.2C68.2796 38.6727 68.8389 38.2639 69.4949 37.9734C70.151 37.6721 70.8985 37.5215 71.7374 37.5215C72.5656 37.5215 73.3077 37.6775 73.9637 37.9895C74.6306 38.2908 75.1898 38.705 75.6416 39.2322C76.104 39.7594 76.459 40.3781 76.7063 41.0882C76.9537 41.7876 77.0774 42.5408 77.0774 43.3477C77.0774 44.1547 76.9537 44.9132 76.7063 45.6233C76.4697 46.3335 76.1202 46.9575 75.6577 47.4955C75.1952 48.0227 74.6359 48.4423 73.9799 48.7543C73.3238 49.0556 72.5763 49.2062 71.7374 49.2062C70.8985 49.2062 70.151 49.0556 69.4949 48.7543C68.8389 48.4423 68.2796 48.0227 67.8171 47.4955C67.3654 46.9575 67.0159 46.3335 66.7685 45.6233C66.5319 44.9132 66.4136 44.1547 66.4136 43.3477ZM67.9785 43.3477C67.9785 43.9287 68.0591 44.4936 68.2205 45.0423C68.3925 45.5911 68.6399 46.0752 68.9626 46.4948C69.2852 46.9145 69.6778 47.2534 70.1403 47.5116C70.6135 47.7591 71.1459 47.8828 71.7374 47.8828C72.3612 47.8828 72.9044 47.7698 73.3668 47.5439C73.8401 47.3072 74.2326 46.9898 74.5445 46.5917C74.8672 46.1828 75.1092 45.704 75.2705 45.1553C75.4318 44.5958 75.5125 43.9933 75.5125 43.3477C75.5125 42.7667 75.4265 42.2072 75.2544 41.6692C75.0823 41.1313 74.8349 40.6525 74.5123 40.2329C74.1896 39.8132 73.7917 39.4797 73.3184 39.2322C72.856 38.974 72.329 38.8449 71.7374 38.8449C71.1459 38.8449 70.6135 38.9632 70.1403 39.2C69.6778 39.4259 69.2852 39.7433 68.9626 40.1522C68.6399 40.5503 68.3925 41.0237 68.2205 41.5724C68.0591 42.1211 67.9785 42.7129 67.9785 43.3477ZM85.9139 49.2062L84.5103 46.1398C84.1554 45.3759 83.7091 44.8325 83.1713 44.5097C82.6335 44.187 81.9452 44.0256 81.1063 44.0256H80.8643V49.0126H79.3317V37.7474C79.9125 37.6936 80.4556 37.656 80.9611 37.6345C81.4774 37.6022 82.0366 37.586 82.6389 37.586C83.3273 37.586 83.9295 37.6614 84.4458 37.812C84.9621 37.9519 85.3923 38.1563 85.7364 38.4253C86.0806 38.6943 86.3387 39.0117 86.5108 39.3775C86.6936 39.7433 86.7851 40.1468 86.7851 40.5879C86.7851 41.3734 86.5484 42.0082 86.0752 42.4923C85.6127 42.9658 84.9405 43.3208 84.0586 43.5575C84.2737 43.6544 84.4727 43.7673 84.6555 43.8964C84.8384 44.0148 85.0104 44.1654 85.1718 44.3483C85.3331 44.5205 85.4891 44.7303 85.6396 44.9778C85.801 45.2252 85.9623 45.5265 86.1236 45.8816L87.3497 48.5284L85.9139 49.2062ZM82.6389 38.8772C82.2732 38.8772 81.9452 38.8826 81.6548 38.8933C81.3644 38.9041 81.1009 38.9202 80.8643 38.9417V42.7344H82.6389C83.4133 42.7344 84.0425 42.5623 84.5265 42.218C85.0104 41.8737 85.2524 41.3787 85.2524 40.7332C85.2524 40.1952 85.0266 39.7541 84.5749 39.4098C84.1231 39.0547 83.4778 38.8772 82.6389 38.8772ZM93.8706 43.0249H97.6618V49.0126H96.3067V47.8828C95.9302 48.2164 95.4731 48.523 94.9354 48.8027C94.3976 49.0717 93.8007 49.2062 93.1446 49.2062C92.4886 49.2062 91.8863 49.0771 91.3378 48.8189C90.7892 48.5607 90.316 48.1895 89.9181 47.7053C89.5201 47.2211 89.2082 46.6401 88.9824 45.9623C88.7565 45.2737 88.6436 44.5044 88.6436 43.6544C88.6436 42.7506 88.7565 41.9275 88.9824 41.1851C89.219 40.4319 89.5578 39.7863 89.9987 39.2484C90.4397 38.6996 90.9775 38.2746 91.612 37.9734C92.2573 37.6721 92.9887 37.5215 93.8061 37.5215C94.5159 37.5215 95.1397 37.6076 95.6775 37.7797C96.226 37.9519 96.7423 38.1724 97.2262 38.4414L96.6616 39.7164C96.2099 39.4689 95.7528 39.2645 95.2903 39.1031C94.8278 38.9417 94.3062 38.861 93.7254 38.861C93.2199 38.861 92.7521 38.9632 92.3219 39.1677C91.8916 39.3721 91.5206 39.6734 91.2087 40.0715C90.8968 40.4696 90.6494 40.9645 90.4666 41.5563C90.2945 42.1373 90.2085 42.8044 90.2085 43.5575C90.2085 44.2354 90.2891 44.8433 90.4504 45.3812C90.6118 45.9085 90.8376 46.3604 91.128 46.7369C91.4184 47.1028 91.7626 47.3825 92.1605 47.5762C92.5692 47.7698 93.0156 47.8667 93.4996 47.8667C93.8007 47.8667 94.0857 47.8344 94.3546 47.7698C94.6235 47.6945 94.8708 47.6031 95.0967 47.4955C95.3226 47.3771 95.5269 47.2534 95.7098 47.1243C95.9034 46.9844 96.0701 46.8445 96.2099 46.7047V44.2354H93.8706V43.0249ZM98.8689 48.6091L103.289 37.7152H104.967L109.323 48.6091L107.919 49.1739L106.661 45.9461H101.434L100.176 49.1417L98.8689 48.6091ZM101.918 44.655H106.161L104.048 39.2322L101.918 44.655ZM112.388 39.6841V49.0126H110.936V37.7152H112.969L117.954 47.1081V37.7152H119.406V49.0126H117.405L112.388 39.6841ZM122.311 49.0126V37.7152H123.843V49.0126H122.311ZM125.947 47.8183L131.948 39.0386H126.221V37.7152H133.707V38.8772L127.705 47.6569H133.933V49.0126H125.947V47.8183ZM136.033 37.7152H142.809V39.0386H137.566V42.4762H142.083V43.7673H137.566V47.6891H142.809V49.0126H136.033V37.7152ZM151.564 49.2062L150.161 46.1398C149.806 45.3759 149.359 44.8325 148.822 44.5097C148.284 44.187 147.596 44.0256 146.757 44.0256H146.515V49.0126H144.982V37.7474C145.563 37.6936 146.106 37.656 146.611 37.6345C147.128 37.6022 147.687 37.586 148.289 37.586C148.978 37.586 149.58 37.6614 150.096 37.812C150.612 37.9519 151.043 38.1563 151.387 38.4253C151.731 38.6943 151.989 39.0117 152.161 39.3775C152.344 39.7433 152.435 40.1468 152.435 40.5879C152.435 41.3734 152.199 42.0082 151.726 42.4923C151.263 42.9658 150.591 43.3208 149.709 43.5575C149.924 43.6544 150.123 43.7673 150.306 43.8964C150.489 44.0148 150.661 44.1654 150.822 44.3483C150.983 44.5205 151.139 44.7303 151.29 44.9778C151.451 45.2252 151.613 45.5265 151.774 45.8816L153 48.5284L151.564 49.2062ZM148.289 38.8772C147.924 38.8772 147.596 38.8826 147.305 38.8933C147.015 38.9041 146.751 38.9202 146.515 38.9417V42.7344H148.289C149.064 42.7344 149.693 42.5623 150.177 42.218C150.661 41.8737 150.903 41.3787 150.903 40.7332C150.903 40.1952 150.677 39.7541 150.225 39.4098C149.773 39.0547 149.128 38.8772 148.289 38.8772Z" fill="black"/>
</svg>
