<svg width="771" height="601" viewBox="0 0 771 601" fill="none" xmlns="http://www.w3.org/2000/svg">
<path d="M57.3705 599.86C57.3705 599.86 -46.7501 465.577 61.8246 348.702C182.515 218.798 68.4881 73.4428 188.751 21.6804C358.33 -51.2996 388.725 93.0228 578.615 57.2448C737.183 27.3764 733.834 260.806 686.976 344.11C648.135 413.174 797.867 447.421 721.219 599.54L57.3705 599.86Z" fill="#EBF3FA"/>
<g opacity="0.3">
<path opacity="0.3" d="M451.333 240.87C451.333 240.87 467.795 160.912 530.795 150.339C530.795 150.339 543.053 148.488 547.543 161.909C552.032 175.33 527.552 176.149 512.586 182.023C497.62 187.897 463.02 212.034 451.333 240.87Z" fill="#AEC3FF"/>
</g>
<g opacity="0.3">
<path opacity="0.3" d="M449.444 226.06C449.444 226.06 440.963 160.485 486.467 135.779C486.467 135.779 495.375 131.115 502.36 140.229C509.344 149.342 490.814 156.391 480.873 164.828C470.967 173.301 450.798 200.855 449.444 226.06Z" fill="#AEC3FF"/>
</g>
<path d="M193.917 202.066C201.65 180.136 238.922 189.891 238.922 189.891C238.922 189.891 261.692 230.937 269.104 232.433C276.515 233.928 256.489 193.522 256.489 193.522C271.063 193.201 306.626 213.6 306.626 213.6C306.626 213.6 300.924 259.133 308.479 258.741C315.997 258.349 311.472 218.157 311.472 218.157C325.155 223.39 337.021 240.656 337.021 240.656C351.381 268.424 314.964 285.441 314.964 285.441C314.964 285.441 313.325 301.247 321.805 320.151C321.805 320.151 323.765 323.675 325.583 329.549L321.77 329.265C321.52 328.232 321.271 327.2 320.95 326.239C320.95 326.239 320.95 326.239 320.95 326.203V326.167C320.736 325.562 320.416 324.708 320.024 323.64C319.026 321.29 318.349 319.546 317.957 318.264C314.999 310.859 310.652 301.141 307.445 298.933C307.445 298.933 307.908 298.364 308.407 297.26C308.122 297.794 307.801 298.364 307.445 298.933C299.891 312.426 267.037 312.355 249.113 307.299C231.19 302.244 239.492 297.687 249.897 290.069C260.302 282.451 280.684 286.153 286.992 283.341C293.299 280.528 284.675 276.612 272.453 276.648C260.267 276.683 253.282 288.36 233.542 288.787C213.801 289.215 201.578 251.265 201.578 251.265C214.798 256.463 239.635 250.767 240.918 246.174C242.2 241.582 206.211 239.41 200.723 237.595C195.165 235.921 186.185 223.995 193.917 202.066Z" fill="#CDE0FB"/>
<path d="M136.761 546.851C123.256 523.284 160.351 497.83 160.351 497.83C160.351 497.83 214.05 509.044 221.034 503.633C227.983 498.222 176.991 485.085 176.991 485.085C187.824 471.949 233.043 456.143 233.043 456.143C233.043 456.143 268.961 495.908 274.377 488.966C279.793 482.024 240.775 455.359 240.775 455.359C255.848 447.243 280.185 449.948 280.185 449.948C315.747 458.457 302.955 503.633 302.955 503.633C302.955 503.633 315.712 517.161 338.874 524.103C338.874 524.103 343.47 525.064 350.062 527.912L346.891 531.081C345.786 530.475 344.682 529.941 343.577 529.479C343.577 529.479 343.577 529.479 343.541 529.479C343.541 529.479 343.506 529.479 343.506 529.443C342.793 529.158 341.795 528.802 340.548 528.339C337.698 527.414 335.631 526.666 334.206 526.061C325.368 523.035 313.467 519.475 309.084 520.614C309.084 520.614 308.942 519.76 308.3 518.478C308.55 519.155 308.799 519.867 309.084 520.614C315.249 537.595 290.127 566.538 271.954 578.5C253.781 590.461 256.097 579.639 257.344 564.651C258.556 549.664 277.406 534.498 279.722 526.773C282.038 519.048 271.99 523.676 262.725 534.498C253.46 545.321 258.449 560.379 243.768 578.108C229.087 595.873 186.185 577.717 186.185 577.717C200.866 569.991 214.798 543.754 211.698 539.126C208.598 534.498 179.236 564.616 173.428 568.069C167.655 571.558 150.266 570.383 136.761 546.851Z" fill="#AFCDFB"/>
<g opacity="0.5">
<path opacity="0.5" d="M654.478 232.753C651.841 208.331 611.148 209.364 611.148 209.364C611.148 209.364 577.795 246.067 569.813 245.782C561.831 245.533 592.191 208.83 592.191 208.83C577.296 204.949 535.783 217.374 535.783 217.374C535.783 217.374 530.617 265.54 522.955 263.333C515.294 261.126 529.69 220.898 529.69 220.898C514.368 222.963 497.976 237.844 497.976 237.844C476.49 262.942 509.807 289.214 509.807 289.214C509.807 289.214 507.669 305.875 494.377 323.248C494.377 323.248 491.491 326.381 488.213 331.97L492.204 332.611C492.703 331.578 493.237 330.617 493.772 329.692C493.772 329.692 493.772 329.656 493.807 329.656C494.164 329.086 494.698 328.268 495.375 327.271C496.979 325.064 498.083 323.462 498.796 322.251C503.642 315.345 510.448 306.409 514.296 304.95C514.296 304.95 513.94 304.273 513.726 302.992C513.905 303.632 514.083 304.273 514.296 304.95C518.786 320.649 552.567 328.517 572.236 327.662C591.906 326.772 584.458 320.115 575.586 309.756C566.713 299.396 544.87 298.292 539.062 293.878C533.253 289.464 543.088 287.506 555.596 290.496C568.138 293.486 572.45 307.157 592.654 312.39C612.858 317.623 634.595 281.56 634.595 281.56C619.735 283.696 595.612 271.877 595.398 266.822C595.184 261.802 632.706 268.246 638.799 267.712C644.964 267.249 657.079 257.174 654.478 232.753Z" fill="#AFCDFB"/>
</g>
<g opacity="0.2">
<path opacity="0.2" d="M675.858 529.728C702.832 507.62 669.907 460.166 669.907 460.166C669.907 460.166 600.351 449.165 594.471 439.518C588.592 429.87 655.761 437.311 655.761 437.311C648.777 416.627 601.741 377.075 601.741 377.075C601.741 377.075 540.487 408.439 537.173 397.652C533.859 386.865 592.832 372.661 592.832 372.661C578.436 356.071 548.005 348.239 548.005 348.239C501.468 342.259 496.195 402.245 496.195 402.245C496.195 402.245 474.743 412.64 443.742 410.433C443.742 410.433 437.756 409.471 428.562 409.899L430.914 415.132C432.518 414.918 434.086 414.776 435.618 414.74H435.654C435.689 414.74 435.689 414.74 435.725 414.74C436.687 414.74 438.077 414.74 439.751 414.74C443.6 414.918 446.379 414.954 448.375 414.918C460.347 415.274 476.24 416.413 481.015 419.831C481.015 419.831 481.585 418.87 482.903 417.624C482.298 418.336 481.656 419.048 481.015 419.831C465.871 437.417 482.796 483.555 499.117 506.197C515.437 528.802 517.61 514.776 522.991 496.229C528.371 477.681 512.693 450.91 513.441 440.586C514.189 430.262 524.131 440.408 530.331 457.567C536.532 474.762 523.632 490.532 533.182 518.514C542.696 546.496 602.453 544.253 602.453 544.253C588.342 528.304 583.639 490.497 589.447 486.332C595.255 482.166 616.778 531.686 622.158 538.486C627.503 545.321 648.883 551.836 675.858 529.728Z" fill="#AFCDFB"/>
</g>
<path d="M261.407 363.903C260.124 367.356 257.915 371.344 255.563 372.34C252.926 373.48 251.821 375.046 251.821 375.046L249.683 373.8L247.153 372.305C247.153 372.305 247.225 372.02 247.331 371.557C247.438 371.094 247.652 370.454 247.902 369.742C247.902 369.742 248.686 368.745 248.187 367.463C247.723 366.217 247.795 364.259 248.614 363.085C249.434 361.91 250.218 358.991 250.717 359.062C251.893 359.275 250.147 363.298 250.645 364.01C251.109 364.686 251.679 364.437 251.786 364.402C251.786 364.402 251.786 364.402 251.821 364.402C255.171 362.942 259.197 355.039 261.015 356.107C261.692 356.534 261.977 362.444 261.407 363.903Z" fill="#FFB27D"/>
<path d="M249.862 368.674L254.031 371.629C254.316 371.842 254.743 371.771 254.957 371.486L265.683 356.249C265.897 355.965 265.825 355.537 265.54 355.324L261.371 352.369C261.086 352.155 260.658 352.227 260.445 352.511L249.719 367.748C249.505 368.069 249.577 368.46 249.862 368.674Z" fill="#2B478B"/>
<path d="M253.71 371.38L256.169 373.088C256.382 373.231 256.703 373.195 256.881 372.982L267.785 357.495C267.928 357.282 267.892 356.961 267.678 356.783L265.219 355.075C265.006 354.932 264.685 354.968 264.507 355.181L253.603 370.668C253.425 370.917 253.461 371.202 253.71 371.38Z" fill="#233862"/>
<path d="M189.855 346.815C189.855 346.815 211.128 383.911 218.861 390.746L247.189 369.671C247.189 369.671 251.287 370.917 253.104 375.046C253.104 375.046 235.894 410.041 218.968 411.536C202.042 413.031 178.274 369.599 178.274 369.599L189.855 346.815Z" fill="#94B0ED"/>
<path d="M141.679 599.112H129.386C127.853 598.258 126.464 596.335 126.036 593.487C125.43 589.536 121.012 587.364 120.05 584.125C119.087 580.885 124.005 576.328 124.005 576.328L124.824 575.26L125.68 574.157L133.84 576.079C133.84 576.079 134.053 578.037 134.16 580.493C134.267 582.273 134.303 584.338 134.196 586.154C133.947 590.461 135.408 595.125 139.256 595.944C142.071 596.585 141.928 598.293 141.679 599.112Z" fill="#233862"/>
<path d="M213.052 599.112H184.938C183.584 597.475 184.083 591.387 184.296 589.394C184.332 589.002 184.368 588.753 184.368 588.753C184.368 588.753 193.989 581.063 195.307 586.937C195.343 587.115 195.378 587.293 195.45 587.471C197.124 592.954 204.572 595.481 208.883 596.158C211.627 596.656 212.661 598.116 213.052 599.112Z" fill="#233862"/>
<path d="M207.707 442.259C207.707 442.259 206.246 460.45 204.536 482.309C202.22 511.999 199.405 548.454 199.12 555.36C198.657 567.357 196.732 586.546 196.732 586.546C196.732 586.546 192.171 591.102 183.049 589.18C183.049 589.18 174.925 561.804 172.609 532.825C172.573 532.362 172.537 531.864 172.502 531.401C170.328 501.889 166.979 439.767 166.979 439.767L207.707 442.259Z" fill="#F99746"/>
<path d="M207.707 442.259C207.707 442.259 206.246 460.45 204.536 482.309L172.573 532.825C172.537 532.362 172.502 531.864 172.466 531.401C170.292 501.889 166.943 439.767 166.943 439.767L207.707 442.259Z" fill="#ED7D2B"/>
<path d="M201.044 444.43C201.044 444.43 174.747 510.255 157.465 541.227C140.182 572.163 134.766 580.814 134.766 580.814C134.766 580.814 124.86 576.862 123.969 574.157C123.969 574.157 130.597 514.42 142.142 499.86C148.699 491.636 156.36 466.93 156.716 458.314C157.073 449.664 159.068 432.576 159.068 432.576L201.044 444.43Z" fill="#F99746"/>
<path d="M194.488 348.417C184.225 351.657 166.444 342.899 166.444 342.899C166.444 342.899 175.923 335.779 175.424 321.041L183.37 327.449L188.751 331.792C188.751 331.792 188.715 334.355 188.145 338.841C188.003 340.016 189.321 342.615 190.461 344.074C193.597 348.061 194.488 348.417 194.488 348.417Z" fill="#FFB27D"/>
<path d="M188.751 331.792C188.751 331.792 188.715 334.355 188.145 338.841C182.159 337.809 175.388 328.161 175.388 328.161C178.417 327.271 181.09 327.128 183.37 327.449L188.751 331.792Z" fill="#ED975D"/>
<path d="M191.886 331.543C191.886 331.543 174.925 334.355 173.321 323.782C171.718 313.209 168.475 306.445 179.236 304.202C189.998 301.959 192.706 305.662 194.095 309.079C195.521 312.461 196.269 330.546 191.886 331.543Z" fill="#FFB27D"/>
<path d="M208.812 443.754C208.491 444.003 208.135 444.181 207.743 444.181C203.894 444.146 192.634 446.282 183.12 445.285C175.103 444.502 167.976 442.152 160.351 438.734C159.353 438.272 157.001 437.026 157.072 435.922C157.108 434.676 157.215 432.896 157.393 430.618C157.928 422.75 158.89 409.222 157.963 393.629C157.785 390.71 157.714 387.827 157.714 385.014C157.643 363.868 161.847 345.249 170.257 338.948C170.969 338.449 175.388 340.585 179.45 342.579C183.192 344.43 186.969 344.644 190.496 343.932L194.06 347.065C198.371 351.087 203.111 356.534 205.177 364.793C206.923 371.842 207.957 384.516 208.527 397.688C208.776 403.633 208.99 409.649 209.026 415.381V415.595C209.061 416.164 209.061 416.769 209.061 417.339C209.311 431.935 209.097 443.576 208.812 443.754Z" fill="#AEC3FF"/>
<path d="M157.393 430.618C157.928 422.75 158.89 409.222 157.963 393.629C157.785 390.71 157.714 387.827 157.714 385.014C161.241 376.506 164.092 370.311 164.092 370.311H172.965C172.929 370.276 179.415 414.598 157.393 430.618Z" fill="#94B0ED"/>
<path d="M112.032 480.849L149.803 486.225C154.721 486.937 159.318 483.484 160.03 478.571L162.346 462.231C163.059 457.318 159.603 452.725 154.685 452.013L116.914 446.638C111.996 445.926 107.4 449.379 106.687 454.292L104.371 470.632C103.658 475.545 107.115 480.137 112.032 480.849Z" fill="#233862"/>
<path d="M156.823 456.855C155.754 454.185 153.474 452.12 150.552 451.408C150.267 451.337 149.982 451.266 149.696 451.23L142.178 450.162L142.677 446.638C142.784 445.855 142.57 445.071 142.107 444.431C141.643 443.79 140.931 443.363 140.147 443.256L138.187 442.971L130.276 441.832L128.851 441.618C127.212 441.405 125.715 442.508 125.466 444.146L124.967 447.67L111.996 445.819C107.079 445.107 102.447 448.56 101.734 453.509L99.3822 470.063C98.6695 474.975 102.126 479.603 107.079 480.315L144.779 485.691C145.456 485.798 146.097 485.798 146.739 485.762C147.772 485.691 148.77 485.442 149.696 485.015C152.476 483.804 154.578 481.205 155.041 478.001L157.393 461.447C157.607 459.881 157.393 458.279 156.823 456.855ZM127.283 444.466C127.354 443.968 127.746 443.612 128.21 443.541C128.316 443.505 128.423 443.505 128.53 443.541L130.205 443.79L136.405 444.68L139.79 445.178C140.396 445.249 140.824 445.819 140.752 446.424L140.254 449.949L126.749 448.026L127.283 444.466Z" fill="#2B478B"/>
<path d="M140.753 432.148C140.753 432.148 138.757 434.783 138.686 435.851C138.152 443.006 141.43 444.003 132.949 447.955C132.949 447.955 129.35 449.343 129.279 446.531C129.208 443.718 131.773 443.683 131.31 439.767C130.775 435.246 130.811 435.21 133.804 432.825L135.764 429.585L140.753 432.148Z" fill="#FFB27D"/>
<path d="M135.692 434.142C138.899 434.747 142.356 434.498 142.356 434.498C142.356 434.498 151.834 405.271 153.046 402.601C154.257 399.931 181.161 368.318 181.161 368.318L169.936 340.301C169.936 340.301 140.824 388.859 137.866 395.694C132.984 406.979 131.274 432.255 131.274 432.255C131.274 432.255 133.198 433.679 135.692 434.142Z" fill="#AEC3FF"/>
<path d="M173.322 322.785C173.322 322.785 175.068 322.501 174.783 320.115C174.497 317.73 174.497 314.597 176.457 315.167C178.417 315.737 178.488 317.303 179.308 316.413C180.092 315.487 180.128 311.678 185.936 311.393C191.744 311.109 194.096 313.138 196.804 311.963C199.512 310.788 199.655 306.694 199.655 306.694C199.655 306.694 198.871 308.154 197.73 308.617C197.73 308.617 202.22 302.458 197.018 298.257C191.815 294.056 186.506 296.797 183.477 296.975C176.849 297.367 172.538 297.759 170.364 302.137C168.155 306.445 169.046 318.585 173.322 322.785Z" fill="#2B478B"/>
<path d="M137.617 435.281C137.617 435.281 139.541 437.275 139.648 438.094C140.04 440.764 140.931 441.903 140.468 442.188C139.541 442.793 138.33 440.835 137.724 439.055C137.154 437.275 137.617 435.281 137.617 435.281Z" fill="#FFB27D"/>
<path d="M489.923 596.087H305.556C293.976 596.087 284.568 586.688 284.568 575.118V222.785C284.568 211.215 293.976 201.817 305.556 201.817H489.923C501.504 201.817 510.911 211.215 510.911 222.785V575.118C510.876 586.688 501.504 596.087 489.923 596.087Z" fill="#4B59D7"/>
<path d="M489.923 598.721H305.556C292.55 598.721 281.932 588.148 281.932 575.118V222.785C281.932 209.791 292.515 199.182 305.556 199.182H489.923C502.929 199.182 513.548 209.755 513.548 222.785V575.118C513.513 588.148 502.929 598.721 489.923 598.721ZM305.556 204.487C295.437 204.487 287.205 212.71 287.205 222.821V575.118C287.205 585.229 295.437 593.452 305.556 593.452H489.923C500.043 593.452 508.274 585.229 508.274 575.118V222.785C508.274 212.675 500.043 204.451 489.923 204.451H305.556V204.487Z" fill="#2B478B"/>
<g opacity="0.9">
<path opacity="0.9" d="M472.143 305.591H323.302V454.292H472.143V305.591Z" fill="white"/>
</g>
<path d="M344.148 438.699H338.233V444.608H344.148V438.699Z" fill="#2B478B"/>
<path d="M350.063 438.699H344.148V444.608H350.063V438.699Z" fill="#2B478B"/>
<path d="M355.978 438.699H350.063V444.608H355.978V438.699Z" fill="#2B478B"/>
<path d="M361.893 438.699H355.978V444.608H361.893V438.699Z" fill="#2B478B"/>
<path d="M367.808 438.699H361.893V444.608H367.808V438.699Z" fill="#2B478B"/>
<path d="M379.639 438.699H373.724V444.608H379.639V438.699Z" fill="#2B478B"/>
<path d="M385.554 438.699H379.639V444.608H385.554V438.699Z" fill="#2B478B"/>
<path d="M403.299 438.699H397.384V444.608H403.299V438.699Z" fill="#2B478B"/>
<path d="M415.485 438.699H409.214V444.608H415.485V438.699Z" fill="#2B478B"/>
<path d="M421.401 438.699H415.485V444.608H421.401V438.699Z" fill="#2B478B"/>
<path d="M433.231 438.699H427.316V444.608H433.231V438.699Z" fill="#2B478B"/>
<path d="M439.146 438.699H433.231V444.608H439.146V438.699Z" fill="#2B478B"/>
<path d="M445.061 438.699H439.146V444.608H445.061V438.699Z" fill="#2B478B"/>
<path d="M450.977 438.699H445.062V444.608H450.977V438.699Z" fill="#2B478B"/>
<path d="M456.892 438.699H450.977V444.608H456.892V438.699Z" fill="#2B478B"/>
<path d="M463.163 438.699H456.892V444.608H463.163V438.699Z" fill="#2B478B"/>
<path d="M338.233 438.699H332.317V444.608H338.233V438.699Z" fill="#2B478B"/>
<path d="M367.808 432.789H361.893V438.699H367.808V432.789Z" fill="#2B478B"/>
<path d="M385.554 432.789H379.639V438.699H385.554V432.789Z" fill="#2B478B"/>
<path d="M397.384 432.789H391.469V438.699H397.384V432.789Z" fill="#2B478B"/>
<path d="M403.299 432.789H397.384V438.699H403.299V432.789Z" fill="#2B478B"/>
<path d="M409.214 432.789H403.299V438.699H409.214V432.789Z" fill="#2B478B"/>
<path d="M415.485 432.789H409.214V438.699H415.485V432.789Z" fill="#2B478B"/>
<path d="M433.231 432.789H427.316V438.699H433.231V432.789Z" fill="#2B478B"/>
<path d="M463.163 432.789H456.892V438.699H463.163V432.789Z" fill="#2B478B"/>
<path d="M338.233 432.789H332.317V438.699H338.233V432.789Z" fill="#2B478B"/>
<path d="M350.063 426.88H344.148V432.789H350.063V426.88Z" fill="#2B478B"/>
<path d="M355.978 426.88H350.063V432.789H355.978V426.88Z" fill="#2B478B"/>
<path d="M367.808 426.88H361.893V432.789H367.808V426.88Z" fill="#2B478B"/>
<path d="M379.639 426.88H373.724V432.789H379.639V426.88Z" fill="#2B478B"/>
<path d="M385.554 426.88H379.639V432.789H385.554V426.88Z" fill="#2B478B"/>
<path d="M391.469 426.88H385.554V432.789H391.469V426.88Z" fill="#2B478B"/>
<path d="M403.299 426.88H397.384V432.789H403.299V426.88Z" fill="#2B478B"/>
<path d="M409.214 426.88H403.299V432.789H409.214V426.88Z" fill="#2B478B"/>
<path d="M415.485 426.88H409.214V432.789H415.485V426.88Z" fill="#2B478B"/>
<path d="M421.401 426.88H415.485V432.789H421.401V426.88Z" fill="#2B478B"/>
<path d="M433.231 426.88H427.316V432.789H433.231V426.88Z" fill="#2B478B"/>
<path d="M445.061 426.88H439.146V432.789H445.061V426.88Z" fill="#2B478B"/>
<path d="M450.977 426.88H445.062V432.789H450.977V426.88Z" fill="#2B478B"/>
<path d="M463.163 426.88H456.892V432.789H463.163V426.88Z" fill="#2B478B"/>
<path d="M338.233 426.88H332.317V432.789H338.233V426.88Z" fill="#2B478B"/>
<path d="M350.063 420.97H344.148V426.88H350.063V420.97Z" fill="#2B478B"/>
<path d="M355.978 420.97H350.063V426.88H355.978V420.97Z" fill="#2B478B"/>
<path d="M367.808 420.97H361.893V426.88H367.808V420.97Z" fill="#2B478B"/>
<path d="M379.639 420.97H373.724V426.88H379.639V420.97Z" fill="#2B478B"/>
<path d="M391.469 420.97H385.554V426.88H391.469V420.97Z" fill="#2B478B"/>
<path d="M403.299 420.97H397.384V426.88H403.299V420.97Z" fill="#2B478B"/>
<path d="M433.231 420.97H427.316V426.88H433.231V420.97Z" fill="#2B478B"/>
<path d="M445.061 420.97H439.146V426.88H445.061V420.97Z" fill="#2B478B"/>
<path d="M450.977 420.97H445.062V426.88H450.977V420.97Z" fill="#2B478B"/>
<path d="M463.163 420.97H456.892V426.88H463.163V420.97Z" fill="#2B478B"/>
<path d="M338.233 420.97H332.317V426.88H338.233V420.97Z" fill="#2B478B"/>
<path d="M367.808 415.061H361.893V420.97H367.808V415.061Z" fill="#2B478B"/>
<path d="M379.639 415.061H373.724V420.97H379.639V415.061Z" fill="#2B478B"/>
<path d="M385.554 415.061H379.639V420.97H385.554V415.061Z" fill="#2B478B"/>
<path d="M391.469 415.061H385.554V420.97H391.469V415.061Z" fill="#2B478B"/>
<path d="M403.299 415.061H397.384V420.97H403.299V415.061Z" fill="#2B478B"/>
<path d="M409.214 415.061H403.299V420.97H409.214V415.061Z" fill="#2B478B"/>
<path d="M421.401 415.061H415.485V420.97H421.401V415.061Z" fill="#2B478B"/>
<path d="M433.231 415.061H427.316V420.97H433.231V415.061Z" fill="#2B478B"/>
<path d="M463.163 415.061H456.892V420.97H463.163V415.061Z" fill="#2B478B"/>
<path d="M338.233 415.061H332.317V420.97H338.233V415.061Z" fill="#2B478B"/>
<path d="M344.148 409.151H338.233V415.061H344.148V409.151Z" fill="#2B478B"/>
<path d="M350.063 409.151H344.148V415.061H350.063V409.151Z" fill="#2B478B"/>
<path d="M355.978 409.151H350.063V415.061H355.978V409.151Z" fill="#2B478B"/>
<path d="M361.893 409.151H355.978V415.061H361.893V409.151Z" fill="#2B478B"/>
<path d="M367.808 409.151H361.893V415.061H367.808V409.151Z" fill="#2B478B"/>
<path d="M379.639 409.151H373.724V415.061H379.639V409.151Z" fill="#2B478B"/>
<path d="M391.469 409.151H385.554V415.061H391.469V409.151Z" fill="#2B478B"/>
<path d="M397.384 409.151H391.469V415.061H397.384V409.151Z" fill="#2B478B"/>
<path d="M409.214 409.151H403.299V415.061H409.214V409.151Z" fill="#2B478B"/>
<path d="M433.231 409.151H427.316V415.061H433.231V409.151Z" fill="#2B478B"/>
<path d="M439.146 409.151H433.231V415.061H439.146V409.151Z" fill="#2B478B"/>
<path d="M445.061 409.151H439.146V415.061H445.061V409.151Z" fill="#2B478B"/>
<path d="M450.977 409.151H445.062V415.061H450.977V409.151Z" fill="#2B478B"/>
<path d="M456.892 409.151H450.977V415.061H456.892V409.151Z" fill="#2B478B"/>
<path d="M463.163 409.151H456.892V415.061H463.163V409.151Z" fill="#2B478B"/>
<path d="M338.233 409.151H332.317V415.061H338.233V409.151Z" fill="#2B478B"/>
<path d="M397.384 403.241H391.469V409.151H397.384V403.241Z" fill="#2B478B"/>
<path d="M403.299 403.241H397.384V409.151H403.299V403.241Z" fill="#2B478B"/>
<path d="M409.214 403.241H403.299V409.151H409.214V403.241Z" fill="#2B478B"/>
<path d="M421.401 403.241H415.485V409.151H421.401V403.241Z" fill="#2B478B"/>
<path d="M344.148 397.332H338.233V403.241H344.148V397.332Z" fill="#2B478B"/>
<path d="M350.063 397.332H344.148V403.241H350.063V397.332Z" fill="#2B478B"/>
<path d="M355.978 397.332H350.063V403.241H355.978V397.332Z" fill="#2B478B"/>
<path d="M361.893 397.332H355.978V403.241H361.893V397.332Z" fill="#2B478B"/>
<path d="M379.639 397.332H373.724V403.241H379.639V397.332Z" fill="#2B478B"/>
<path d="M385.554 397.332H379.639V403.241H385.554V397.332Z" fill="#2B478B"/>
<path d="M391.469 397.332H385.554V403.241H391.469V397.332Z" fill="#2B478B"/>
<path d="M403.299 397.332H397.384V403.241H403.299V397.332Z" fill="#2B478B"/>
<path d="M409.214 397.332H403.299V403.241H409.214V397.332Z" fill="#2B478B"/>
<path d="M415.485 397.332H409.214V403.241H415.485V397.332Z" fill="#2B478B"/>
<path d="M421.401 397.332H415.485V403.241H421.401V397.332Z" fill="#2B478B"/>
<path d="M427.316 397.332H421.401V403.241H427.316V397.332Z" fill="#2B478B"/>
<path d="M433.231 397.332H427.316V403.241H433.231V397.332Z" fill="#2B478B"/>
<path d="M439.146 397.332H433.231V403.241H439.146V397.332Z" fill="#2B478B"/>
<path d="M445.061 397.332H439.146V403.241H445.061V397.332Z" fill="#2B478B"/>
<path d="M456.892 397.332H450.977V403.241H456.892V397.332Z" fill="#2B478B"/>
<path d="M463.163 397.332H456.892V403.241H463.163V397.332Z" fill="#2B478B"/>
<path d="M350.063 391.422H344.148V397.332H350.063V391.422Z" fill="#2B478B"/>
<path d="M355.978 391.422H350.063V397.332H355.978V391.422Z" fill="#2B478B"/>
<path d="M373.724 391.422H367.809V397.332H373.724V391.422Z" fill="#2B478B"/>
<path d="M379.639 391.422H373.724V397.332H379.639V391.422Z" fill="#2B478B"/>
<path d="M391.469 391.422H385.554V397.332H391.469V391.422Z" fill="#2B478B"/>
<path d="M409.214 391.422H403.299V397.332H409.214V391.422Z" fill="#2B478B"/>
<path d="M421.401 391.422H415.485V397.332H421.401V391.422Z" fill="#2B478B"/>
<path d="M427.316 391.422H421.401V397.332H427.316V391.422Z" fill="#2B478B"/>
<path d="M439.146 391.422H433.231V397.332H439.146V391.422Z" fill="#2B478B"/>
<path d="M445.061 391.422H439.146V397.332H445.061V391.422Z" fill="#2B478B"/>
<path d="M344.148 385.512H338.233V391.422H344.148V385.512Z" fill="#2B478B"/>
<path d="M355.978 385.512H350.063V391.422H355.978V385.512Z" fill="#2B478B"/>
<path d="M361.893 385.512H355.978V391.422H361.893V385.512Z" fill="#2B478B"/>
<path d="M367.808 385.512H361.893V391.422H367.808V385.512Z" fill="#2B478B"/>
<path d="M373.724 385.512H367.809V391.422H373.724V385.512Z" fill="#2B478B"/>
<path d="M385.554 385.512H379.639V391.422H385.554V385.512Z" fill="#2B478B"/>
<path d="M391.469 385.512H385.554V391.422H391.469V385.512Z" fill="#2B478B"/>
<path d="M397.384 385.512H391.469V391.422H397.384V385.512Z" fill="#2B478B"/>
<path d="M403.299 385.512H397.384V391.422H403.299V385.512Z" fill="#2B478B"/>
<path d="M409.214 385.512H403.299V391.422H409.214V385.512Z" fill="#2B478B"/>
<path d="M415.485 385.512H409.214V391.422H415.485V385.512Z" fill="#2B478B"/>
<path d="M445.061 385.512H439.146V391.422H445.061V385.512Z" fill="#2B478B"/>
<path d="M450.977 385.512H445.062V391.422H450.977V385.512Z" fill="#2B478B"/>
<path d="M463.163 385.512H456.892V391.422H463.163V385.512Z" fill="#2B478B"/>
<path d="M338.233 385.512H332.317V391.422H338.233V385.512Z" fill="#2B478B"/>
<path d="M344.148 379.603H338.233V385.513H344.148V379.603Z" fill="#2B478B"/>
<path d="M350.063 379.603H344.148V385.513H350.063V379.603Z" fill="#2B478B"/>
<path d="M355.978 379.603H350.063V385.513H355.978V379.603Z" fill="#2B478B"/>
<path d="M379.639 379.603H373.724V385.513H379.639V379.603Z" fill="#2B478B"/>
<path d="M385.554 379.603H379.639V385.513H385.554V379.603Z" fill="#2B478B"/>
<path d="M409.214 379.603H403.299V385.513H409.214V379.603Z" fill="#2B478B"/>
<path d="M427.316 379.603H421.401V385.513H427.316V379.603Z" fill="#2B478B"/>
<path d="M433.231 379.603H427.316V385.513H433.231V379.603Z" fill="#2B478B"/>
<path d="M445.061 379.603H439.146V385.513H445.061V379.603Z" fill="#2B478B"/>
<path d="M450.977 379.603H445.062V385.513H450.977V379.603Z" fill="#2B478B"/>
<path d="M456.892 379.603H450.977V385.513H456.892V379.603Z" fill="#2B478B"/>
<path d="M463.163 379.603H456.892V385.513H463.163V379.603Z" fill="#2B478B"/>
<path d="M338.233 379.603H332.317V385.513H338.233V379.603Z" fill="#2B478B"/>
<path d="M355.978 373.658H350.063V379.567H355.978V373.658Z" fill="#2B478B"/>
<path d="M361.893 373.658H355.978V379.567H361.893V373.658Z" fill="#2B478B"/>
<path d="M367.808 373.658H361.893V379.567H367.808V373.658Z" fill="#2B478B"/>
<path d="M373.724 373.658H367.809V379.567H373.724V373.658Z" fill="#2B478B"/>
<path d="M379.639 373.658H373.724V379.567H379.639V373.658Z" fill="#2B478B"/>
<path d="M385.554 373.658H379.639V379.567H385.554V373.658Z" fill="#2B478B"/>
<path d="M403.299 373.658H397.384V379.567H403.299V373.658Z" fill="#2B478B"/>
<path d="M421.401 373.658H415.485V379.567H421.401V373.658Z" fill="#2B478B"/>
<path d="M427.316 373.658H421.401V379.567H427.316V373.658Z" fill="#2B478B"/>
<path d="M450.977 373.658H445.062V379.567H450.977V373.658Z" fill="#2B478B"/>
<path d="M338.233 373.658H332.317V379.567H338.233V373.658Z" fill="#2B478B"/>
<path d="M344.148 367.748H338.233V373.658H344.148V367.748Z" fill="#2B478B"/>
<path d="M350.063 367.748H344.148V373.658H350.063V367.748Z" fill="#2B478B"/>
<path d="M355.978 367.748H350.063V373.658H355.978V367.748Z" fill="#2B478B"/>
<path d="M361.893 367.748H355.978V373.658H361.893V367.748Z" fill="#2B478B"/>
<path d="M373.724 367.748H367.809V373.658H373.724V367.748Z" fill="#2B478B"/>
<path d="M385.554 367.748H379.639V373.658H385.554V367.748Z" fill="#2B478B"/>
<path d="M391.469 367.748H385.554V373.658H391.469V367.748Z" fill="#2B478B"/>
<path d="M403.299 367.748H397.384V373.658H403.299V367.748Z" fill="#2B478B"/>
<path d="M409.214 367.748H403.299V373.658H409.214V367.748Z" fill="#2B478B"/>
<path d="M415.485 367.748H409.214V373.658H415.485V367.748Z" fill="#2B478B"/>
<path d="M421.401 367.748H415.485V373.658H421.401V367.748Z" fill="#2B478B"/>
<path d="M433.231 367.748H427.316V373.658H433.231V367.748Z" fill="#2B478B"/>
<path d="M439.146 367.748H433.231V373.658H439.146V367.748Z" fill="#2B478B"/>
<path d="M445.061 367.748H439.146V373.658H445.061V367.748Z" fill="#2B478B"/>
<path d="M450.977 367.748H445.062V373.658H450.977V367.748Z" fill="#2B478B"/>
<path d="M463.163 367.748H456.892V373.658H463.163V367.748Z" fill="#2B478B"/>
<path d="M344.148 361.839H338.233V367.748H344.148V361.839Z" fill="#2B478B"/>
<path d="M355.978 361.839H350.063V367.748H355.978V361.839Z" fill="#2B478B"/>
<path d="M367.808 361.839H361.893V367.748H367.808V361.839Z" fill="#2B478B"/>
<path d="M373.724 361.839H367.809V367.748H373.724V361.839Z" fill="#2B478B"/>
<path d="M391.469 361.839H385.554V367.748H391.469V361.839Z" fill="#2B478B"/>
<path d="M397.384 361.839H391.469V367.748H397.384V361.839Z" fill="#2B478B"/>
<path d="M403.299 361.839H397.384V367.748H403.299V361.839Z" fill="#2B478B"/>
<path d="M415.485 361.839H409.214V367.748H415.485V361.839Z" fill="#2B478B"/>
<path d="M421.401 361.839H415.485V367.748H421.401V361.839Z" fill="#2B478B"/>
<path d="M427.316 361.839H421.401V367.748H427.316V361.839Z" fill="#2B478B"/>
<path d="M439.146 361.839H433.231V367.748H439.146V361.839Z" fill="#2B478B"/>
<path d="M450.977 361.839H445.062V367.748H450.977V361.839Z" fill="#2B478B"/>
<path d="M456.892 361.839H450.977V367.748H456.892V361.839Z" fill="#2B478B"/>
<path d="M463.163 361.839H456.892V367.748H463.163V361.839Z" fill="#2B478B"/>
<path d="M338.233 361.839H332.317V367.748H338.233V361.839Z" fill="#2B478B"/>
<path d="M344.148 355.929H338.233V361.839H344.148V355.929Z" fill="#2B478B"/>
<path d="M367.808 355.929H361.893V361.839H367.808V355.929Z" fill="#2B478B"/>
<path d="M373.724 355.929H367.809V361.839H373.724V355.929Z" fill="#2B478B"/>
<path d="M385.554 355.929H379.639V361.839H385.554V355.929Z" fill="#2B478B"/>
<path d="M391.469 355.929H385.554V361.839H391.469V355.929Z" fill="#2B478B"/>
<path d="M403.299 355.929H397.384V361.839H403.299V355.929Z" fill="#2B478B"/>
<path d="M409.214 355.929H403.299V361.839H409.214V355.929Z" fill="#2B478B"/>
<path d="M421.401 355.929H415.485V361.839H421.401V355.929Z" fill="#2B478B"/>
<path d="M427.316 355.929H421.401V361.839H427.316V355.929Z" fill="#2B478B"/>
<path d="M433.231 355.929H427.316V361.839H433.231V355.929Z" fill="#2B478B"/>
<path d="M439.146 355.929H433.231V361.839H439.146V355.929Z" fill="#2B478B"/>
<path d="M445.061 355.929H439.146V361.839H445.061V355.929Z" fill="#2B478B"/>
<path d="M450.977 355.929H445.062V361.839H450.977V355.929Z" fill="#2B478B"/>
<path d="M338.233 355.929H332.317V361.839H338.233V355.929Z" fill="#2B478B"/>
<path d="M385.554 350.019H379.639V355.929H385.554V350.019Z" fill="#2B478B"/>
<path d="M397.384 350.019H391.469V355.929H397.384V350.019Z" fill="#2B478B"/>
<path d="M403.299 350.019H397.384V355.929H403.299V350.019Z" fill="#2B478B"/>
<path d="M415.485 350.019H409.214V355.929H415.485V350.019Z" fill="#2B478B"/>
<path d="M421.401 350.019H415.485V355.929H421.401V350.019Z" fill="#2B478B"/>
<path d="M427.316 350.019H421.401V355.929H427.316V350.019Z" fill="#2B478B"/>
<path d="M344.148 344.11H338.233V350.019H344.148V344.11Z" fill="#2B478B"/>
<path d="M350.063 344.11H344.148V350.019H350.063V344.11Z" fill="#2B478B"/>
<path d="M355.978 344.11H350.063V350.019H355.978V344.11Z" fill="#2B478B"/>
<path d="M361.893 344.11H355.978V350.019H361.893V344.11Z" fill="#2B478B"/>
<path d="M367.808 344.11H361.893V350.019H367.808V344.11Z" fill="#2B478B"/>
<path d="M379.639 344.11H373.724V350.019H379.639V344.11Z" fill="#2B478B"/>
<path d="M385.554 344.11H379.639V350.019H385.554V344.11Z" fill="#2B478B"/>
<path d="M403.299 344.11H397.384V350.019H403.299V344.11Z" fill="#2B478B"/>
<path d="M427.316 344.11H421.401V350.019H427.316V344.11Z" fill="#2B478B"/>
<path d="M433.231 344.11H427.316V350.019H433.231V344.11Z" fill="#2B478B"/>
<path d="M445.061 344.11H439.146V350.019H445.061V344.11Z" fill="#2B478B"/>
<path d="M463.163 344.11H456.892V350.019H463.163V344.11Z" fill="#2B478B"/>
<path d="M338.233 344.11H332.317V350.019H338.233V344.11Z" fill="#2B478B"/>
<path d="M367.808 338.2H361.893V344.11H367.808V338.2Z" fill="#2B478B"/>
<path d="M415.485 338.2H409.214V344.11H415.485V338.2Z" fill="#2B478B"/>
<path d="M421.401 338.2H415.485V344.11H421.401V338.2Z" fill="#2B478B"/>
<path d="M433.231 338.2H427.316V344.11H433.231V338.2Z" fill="#2B478B"/>
<path d="M439.146 338.2H433.231V344.11H439.146V338.2Z" fill="#2B478B"/>
<path d="M450.977 338.2H445.062V344.11H450.977V338.2Z" fill="#2B478B"/>
<path d="M456.892 338.2H450.977V344.11H456.892V338.2Z" fill="#2B478B"/>
<path d="M463.163 338.2H456.892V344.11H463.163V338.2Z" fill="#2B478B"/>
<path d="M338.233 338.2H332.317V344.11H338.233V338.2Z" fill="#2B478B"/>
<path d="M350.063 332.291H344.148V338.2H350.063V332.291Z" fill="#2B478B"/>
<path d="M355.978 332.291H350.063V338.2H355.978V332.291Z" fill="#2B478B"/>
<path d="M367.808 332.291H361.893V338.2H367.808V332.291Z" fill="#2B478B"/>
<path d="M379.639 332.291H373.724V338.2H379.639V332.291Z" fill="#2B478B"/>
<path d="M385.554 332.291H379.639V338.2H385.554V332.291Z" fill="#2B478B"/>
<path d="M397.384 332.291H391.469V338.2H397.384V332.291Z" fill="#2B478B"/>
<path d="M403.299 332.291H397.384V338.2H403.299V332.291Z" fill="#2B478B"/>
<path d="M415.485 332.291H409.214V338.2H415.485V332.291Z" fill="#2B478B"/>
<path d="M439.146 332.291H433.231V338.2H439.146V332.291Z" fill="#2B478B"/>
<path d="M445.061 332.291H439.146V338.2H445.061V332.291Z" fill="#2B478B"/>
<path d="M450.977 332.291H445.062V338.2H450.977V332.291Z" fill="#2B478B"/>
<path d="M338.233 332.291H332.317V338.2H338.233V332.291Z" fill="#2B478B"/>
<path d="M350.063 326.381H344.148V332.291H350.063V326.381Z" fill="#2B478B"/>
<path d="M355.978 326.381H350.063V332.291H355.978V326.381Z" fill="#2B478B"/>
<path d="M367.808 326.381H361.893V332.291H367.808V326.381Z" fill="#2B478B"/>
<path d="M379.639 326.381H373.724V332.291H379.639V326.381Z" fill="#2B478B"/>
<path d="M391.469 326.381H385.554V332.291H391.469V326.381Z" fill="#2B478B"/>
<path d="M397.384 326.381H391.469V332.291H397.384V326.381Z" fill="#2B478B"/>
<path d="M403.299 326.381H397.384V332.291H403.299V326.381Z" fill="#2B478B"/>
<path d="M409.214 326.381H403.299V332.291H409.214V326.381Z" fill="#2B478B"/>
<path d="M415.485 326.381H409.214V332.291H415.485V326.381Z" fill="#2B478B"/>
<path d="M427.316 326.381H421.401V332.291H427.316V326.381Z" fill="#2B478B"/>
<path d="M433.231 326.381H427.316V332.291H433.231V326.381Z" fill="#2B478B"/>
<path d="M439.146 326.381H433.231V332.291H439.146V326.381Z" fill="#2B478B"/>
<path d="M450.977 326.381H445.062V332.291H450.977V326.381Z" fill="#2B478B"/>
<path d="M456.892 326.381H450.977V332.291H456.892V326.381Z" fill="#2B478B"/>
<path d="M463.163 326.381H456.892V332.291H463.163V326.381Z" fill="#2B478B"/>
<path d="M338.233 326.381H332.317V332.291H338.233V326.381Z" fill="#2B478B"/>
<path d="M367.808 320.471H361.893V326.381H367.808V320.471Z" fill="#2B478B"/>
<path d="M391.469 320.471H385.554V326.381H391.469V320.471Z" fill="#2B478B"/>
<path d="M397.384 320.471H391.469V326.381H397.384V320.471Z" fill="#2B478B"/>
<path d="M409.214 320.471H403.299V326.381H409.214V320.471Z" fill="#2B478B"/>
<path d="M415.485 320.471H409.214V326.381H415.485V320.471Z" fill="#2B478B"/>
<path d="M421.401 320.471H415.485V326.381H421.401V320.471Z" fill="#2B478B"/>
<path d="M427.316 320.471H421.401V326.381H427.316V320.471Z" fill="#2B478B"/>
<path d="M456.892 320.471H450.977V326.381H456.892V320.471Z" fill="#2B478B"/>
<path d="M338.233 320.471H332.317V326.381H338.233V320.471Z" fill="#2B478B"/>
<path d="M344.148 314.562H338.233V320.471H344.148V314.562Z" fill="#2B478B"/>
<path d="M350.063 314.562H344.148V320.471H350.063V314.562Z" fill="#2B478B"/>
<path d="M355.978 314.562H350.063V320.471H355.978V314.562Z" fill="#2B478B"/>
<path d="M361.893 314.562H355.978V320.471H361.893V314.562Z" fill="#2B478B"/>
<path d="M367.808 314.562H361.893V320.471H367.808V314.562Z" fill="#2B478B"/>
<path d="M379.639 314.562H373.724V320.471H379.639V314.562Z" fill="#2B478B"/>
<path d="M385.554 314.562H379.639V320.471H385.554V314.562Z" fill="#2B478B"/>
<path d="M415.485 314.562H409.214V320.471H415.485V314.562Z" fill="#2B478B"/>
<path d="M427.316 314.562H421.401V320.471H427.316V314.562Z" fill="#2B478B"/>
<path d="M439.146 314.562H433.231V320.471H439.146V314.562Z" fill="#2B478B"/>
<path d="M445.061 314.562H439.146V320.471H445.061V314.562Z" fill="#2B478B"/>
<path d="M463.163 314.562H456.892V320.471H463.163V314.562Z" fill="#2B478B"/>
<path d="M338.233 314.562H332.317V320.471H338.233V314.562Z" fill="#2B478B"/>
<g opacity="0.8">
<g opacity="0.8">
<g opacity="0.8">
<path opacity="0.8" d="M312.541 326.203C311.365 326.203 310.438 325.277 310.438 324.102V295.444C310.438 294.27 311.365 293.344 312.541 293.344H341.475C342.651 293.344 343.578 294.27 343.578 295.444C343.578 296.619 342.651 297.545 341.475 297.545H314.643V324.102C314.643 325.277 313.717 326.203 312.541 326.203Z" fill="white"/>
</g>
</g>
<g opacity="0.8">
<g opacity="0.8">
<path opacity="0.8" d="M482.94 326.345C481.764 326.345 480.837 325.42 480.837 324.245V297.438H454.255C453.079 297.438 452.152 296.512 452.152 295.338C452.152 294.163 453.079 293.237 454.255 293.237H482.94C484.115 293.237 485.042 294.163 485.042 295.338V324.245C485.042 325.42 484.08 326.345 482.94 326.345Z" fill="white"/>
</g>
</g>
</g>
<g opacity="0.8">
<g opacity="0.8">
<g opacity="0.8">
<path opacity="0.8" d="M482.94 470.383H454.005C452.829 470.383 451.903 469.457 451.903 468.283C451.903 467.108 452.829 466.182 454.005 466.182H480.837V439.625C480.837 438.45 481.764 437.524 482.94 437.524C484.115 437.524 485.042 438.45 485.042 439.625V468.283C485.042 469.457 484.08 470.383 482.94 470.383Z" fill="white"/>
</g>
</g>
<g opacity="0.8">
<g opacity="0.8">
<path opacity="0.8" d="M341.226 470.525H312.541C311.365 470.525 310.438 469.6 310.438 468.425V439.482C310.438 438.307 311.365 437.382 312.541 437.382C313.717 437.382 314.643 438.307 314.643 439.482V466.289H341.226C342.402 466.289 343.328 467.214 343.328 468.389C343.328 469.564 342.402 470.525 341.226 470.525Z" fill="white"/>
</g>
</g>
</g>
<path d="M472.142 510.255V514.278C472.142 516.485 470.361 518.265 468.151 518.265H327.293C325.083 518.265 323.302 516.485 323.302 514.278V510.255C323.302 508.048 325.083 506.268 327.293 506.268H468.151C470.361 506.268 472.142 508.083 472.142 510.255Z" fill="white"/>
<path d="M427.315 506.268V518.265H327.293C325.083 518.265 323.302 516.485 323.302 514.278V510.255C323.302 508.048 325.083 506.268 327.293 506.268H427.315Z" fill="#ED7D2B"/>
<path d="M406.47 506.268L395.424 518.265H374.685L385.767 506.268H406.47Z" fill="#F99746"/>
<path d="M427.316 506.268V518.265H408.109L419.191 506.268H427.316Z" fill="#F99746"/>
<path d="M373.153 506.268L362.071 518.265H341.368L352.414 506.268H373.153Z" fill="#F99746"/>
<path d="M339.8 506.268L328.718 518.265H327.186C324.977 518.265 323.195 516.485 323.195 514.278V510.255C323.195 508.048 324.977 506.268 327.186 506.268H339.8Z" fill="#F99746"/>
<path d="M382.453 499.432L383.237 498.507C383.95 499.112 384.662 499.468 385.589 499.468C386.408 499.468 386.907 499.112 386.907 498.507C386.907 497.973 386.622 497.688 385.232 497.368C383.665 497.012 382.738 496.513 382.738 495.125C382.738 493.843 383.807 492.953 385.268 492.953C386.337 492.953 387.228 493.274 387.976 493.879L387.264 494.876C386.587 494.377 385.91 494.128 385.232 494.128C384.484 494.128 384.021 494.52 384.021 495.018C384.021 495.588 384.377 495.837 385.803 496.193C387.371 496.584 388.19 497.154 388.19 498.4C388.19 499.788 387.085 500.607 385.518 500.607C384.449 500.607 383.344 500.216 382.453 499.432Z" fill="white"/>
<path d="M389.438 496.798C389.438 494.698 391.005 492.953 393.286 492.953C394.64 492.953 395.495 493.416 396.208 494.128L395.353 495.089C394.747 494.52 394.106 494.164 393.286 494.164C391.861 494.164 390.827 495.338 390.827 496.798C390.827 498.258 391.861 499.432 393.286 499.432C394.212 499.432 394.783 499.076 395.424 498.471L396.279 499.326C395.495 500.144 394.64 500.643 393.25 500.643C391.041 500.643 389.438 498.97 389.438 496.798Z" fill="white"/>
<path d="M400.27 493.024H401.481L404.759 500.5H403.37L402.621 498.72H399.094L398.345 500.5H396.991L400.27 493.024ZM402.122 497.581L400.84 494.591L399.557 497.581H402.122Z" fill="white"/>
<path d="M406.007 493.095H407.218L411.209 498.222V493.095H412.492V500.536H411.387L407.29 495.231V500.536H406.007V493.095Z" fill="white"/>
<path d="M509.343 440.835C516.221 438.841 523.953 441.12 528.799 446.388C540.772 459.382 531.935 469.422 537.957 478.5C541.592 483.982 544.62 493.63 533.396 499.326C528.193 501.96 512.729 515.737 509.593 516.058C477.523 519.333 476.953 486.83 487.75 477.396C502.929 464.153 489.032 446.744 509.343 440.835Z" fill="#233862"/>
<path d="M526.127 491.102C526.127 491.102 555.417 505.271 560.905 505.022C566.392 504.772 600.672 492.74 600.672 492.74L599.816 498.542C599.816 498.542 573.733 513.53 564.611 514.384C555.631 515.239 524.951 506.339 521.993 504.452C519 502.565 517.503 492.989 526.127 491.102Z" fill="#ED985F"/>
<path d="M529.334 504.452C526.697 506.303 523.348 507.798 519.179 508.76C503.535 512.391 497.513 499.148 495.269 490.07C497.407 488.859 499.402 488.574 500.578 488.432C501.718 488.29 502.894 488.218 503.892 488.147C505.638 486.794 508.275 481.312 508.845 472.732L509.593 472.946L521.922 476.328C521.922 476.328 521.352 480.244 521.067 483.946C520.853 486.83 520.818 489.607 521.352 490.283C522.314 490.497 522.884 490.639 522.884 490.639C523.098 490.96 526.662 496.834 529.334 504.452Z" fill="#FFB27D"/>
<path d="M521.922 476.364C521.922 476.364 521.352 480.28 521.067 483.982C514.083 483.27 510.84 476.648 509.557 472.982L521.922 476.364Z" fill="#ED985F"/>
<path d="M523.989 480.066C523.989 480.066 507.384 479.14 508.132 468.852C508.845 458.528 507.206 451.479 517.824 451.622C528.443 451.764 530.225 455.858 530.83 459.347C531.436 462.836 528.336 480.03 523.989 480.066Z" fill="#FFB27D"/>
<path d="M530.759 453.544C528.407 450.269 526.448 450.803 525.272 451.657C516.577 446.032 510.199 452.974 510.199 452.974C508.56 460.308 502.93 464.153 502.93 464.153C502.93 464.153 505.887 466.502 512.907 464.936C521.922 462.942 524.987 455.146 525.414 453.935C526.376 454.932 527.588 455.537 528.514 457.673C529.619 460.201 530.332 461.661 530.332 465.826C530.367 465.826 534.251 458.492 530.759 453.544Z" fill="#233862"/>
<path d="M490.529 538.165C489.033 530.511 484.151 499.931 489.033 490.105C490.779 486.581 497.656 486.26 505.21 486.545C507.562 488.076 516.506 493.808 520.212 493.06C520.248 493.06 520.319 493.024 520.426 493.024C522.172 492.597 522.813 491.387 521.352 490.319C521.352 490.319 524.666 490.568 529.298 491.422C531.935 491.921 539.133 496.335 539.133 496.335C539.133 496.335 535.855 501.426 530.617 503.633C531.508 511.608 530.189 515.132 521.887 533.608C514.867 549.201 522.849 563.228 522.849 563.228C522.849 563.228 481.586 596.371 481.372 579.497C481.194 566.823 492.454 547.955 490.529 538.165Z" fill="#F99746"/>
<path d="M524.915 599.29C527.16 599.041 529.191 597.795 530.438 595.944C530.652 595.659 530.866 595.339 531.079 594.983C535.783 587.863 537.6 566.111 548.183 542.971C550.749 537.346 559.978 536.314 562.508 529.942C562.508 529.942 568.708 509.258 550.642 508.653C532.576 508.048 502.252 566.182 501.789 572.27C501.29 578.144 489.816 603.242 524.915 599.29Z" fill="#94B0ED"/>
<path d="M596.681 599.184H570.989C570.989 599.184 570.027 594.983 571.702 592.099C573.198 589.572 572.628 588.112 571.523 586.012C572.699 586.51 574.196 586.937 575.871 586.831C577.153 586.759 578.508 586.154 579.683 585.442C580.788 586.724 585.527 592.242 587.024 593.345C588.699 594.627 596.182 594.2 596.681 599.184Z" fill="#0D2644"/>
<path d="M563.079 514.598C564.611 526.204 570.669 562.8 581.323 580.636C584.744 586.403 572.664 589.607 572.593 589.607C570.954 589.18 568.281 586.581 567.034 585.478C558.375 577.681 540.808 555.609 540.808 537.916C540.808 529.301 540.665 512.818 546.937 508.617C550.785 506.054 562.437 510.006 563.079 514.598Z" fill="#94B0ED"/>
<path d="M491.562 504.452C491.562 504.452 496.765 515.061 521.138 522.537C545.476 530.013 531.579 511.216 531.579 511.216L497.513 499.326L491.562 504.452Z" fill="#ED7D2B"/>
<path d="M512.337 599.326C512.337 599.326 513.655 597.368 514.475 594.484C515.864 589.643 516.363 586.118 519 578.571C521.779 570.632 525.093 560.914 529.227 550.768C530.51 547.635 531.864 544.466 533.289 541.298C535.855 535.673 542.946 536.421 545.476 530.048C545.476 530.048 555.311 507.941 537.244 507.336C519.178 506.73 484.863 566.467 482.868 572.27C480.73 578.571 472.962 605.378 512.337 599.326Z" fill="#AEC3FF"/>
<path d="M577.831 599.184H552.104C552.104 599.184 551.142 594.983 552.816 592.099C554.313 589.572 553.743 588.112 552.638 586.012C553.814 586.51 555.311 586.937 556.985 586.831C558.268 586.759 559.622 586.154 560.798 585.442C561.903 586.724 566.642 592.242 568.139 593.345C569.813 594.627 577.296 594.2 577.831 599.184Z" fill="#163560"/>
<g opacity="0.5">
<path opacity="0.5" d="M519 578.536C521.779 570.597 525.093 560.878 529.227 550.732C528.158 543.042 525.806 536.314 521.886 533.608C521.922 533.608 512.408 563.014 519 578.536Z" fill="#94B0ED"/>
</g>
<path d="M548.041 513.779C549.573 525.385 551.783 562.801 562.437 580.636C565.858 586.403 553.778 589.607 553.707 589.607C552.068 589.18 549.395 586.581 548.148 585.478C539.489 577.681 521.922 555.609 521.922 537.916C521.922 529.301 532.042 513.494 538.349 509.294C542.197 506.73 547.435 509.187 548.041 513.779Z" fill="#AEC3FF"/>
<path d="M603.701 477.788L577.368 475.011C576.584 474.94 575.871 475.367 575.586 476.079L566.179 500.821C565.751 501.889 566.535 503.064 567.711 503.135L593.83 504.203C594.543 504.239 595.184 503.811 595.469 503.171L605.091 480.173C605.518 479.069 604.841 477.894 603.701 477.788Z" fill="#DB6B3A"/>
<path d="M605.981 478.037L579.648 475.26C578.864 475.189 578.152 475.616 577.867 476.328L568.459 501.07C568.032 502.138 568.816 503.313 569.992 503.384L596.111 504.452C596.823 504.488 597.465 504.061 597.75 503.42L607.371 480.422C607.834 479.319 607.121 478.144 605.981 478.037Z" fill="#F78248"/>
<path d="M591.407 489.571C591.728 488.681 591.265 487.969 590.374 487.969C589.483 487.969 588.521 488.681 588.2 489.571C587.88 490.461 588.343 491.173 589.234 491.173C590.124 491.173 591.087 490.461 591.407 489.571Z" fill="#EBF3FA"/>
<path d="M605.197 480.351C605.34 479.924 605.126 479.568 604.698 479.568C604.271 479.568 603.772 479.924 603.629 480.351C603.487 480.778 603.701 481.134 604.128 481.134C604.556 481.134 605.055 480.778 605.197 480.351Z" fill="#EBF3FA"/>
<path d="M495.268 490.105C495.268 490.105 531.757 503.526 537.244 503.242C540.772 503.064 570.241 492.704 570.241 492.704L572.877 497.688C572.877 497.688 544.193 516.093 536.318 516.022C520.746 515.844 494.484 506.303 491.527 504.416C488.605 502.565 486.645 491.992 495.268 490.105Z" fill="#FFB27D"/>
<path d="M570.241 492.74C570.241 492.74 572.878 488.681 575.514 488.539C578.151 488.396 582.712 490.319 584.245 490.639C585.777 490.96 590.231 492.384 588.913 494.52C587.594 496.656 581.501 497.154 578.864 496.656C576.227 496.193 572.878 497.724 572.878 497.724L570.241 492.74Z" fill="#FFB27D"/>
<path d="M574.802 488.681C574.802 488.681 579.007 486.759 580.182 486.403C581.394 486.047 581.145 486.403 580.788 487.542C580.432 488.681 578.258 489.749 578.258 490.105C578.258 490.461 574.802 488.681 574.802 488.681Z" fill="#FFB27D"/>
<path d="M603.272 490.568C603.272 490.568 601.598 485.086 599.78 486.794C597.856 488.574 599.032 490.39 599.282 492.668C599.745 497.047 600.6 496.869 601.17 496.656C601.74 496.442 603.914 492.775 603.272 490.568Z" fill="#FFB27D"/>
<path d="M603.38 491.422C603.38 491.422 604.235 496.086 599.781 498.542L601.099 495.338L603.38 491.422Z" fill="#FFB27D"/>
<path d="M527.089 474.121C527.089 474.121 525.521 473.516 521.103 473.872C521.103 473.872 521.352 475.58 524.595 475.758C526.448 475.83 527.089 474.121 527.089 474.121Z" fill="white"/>
<path d="M514.083 496.727C514.083 496.727 510.804 507.051 499.615 509.4C499.615 509.4 481.122 503.704 490.315 491.102C490.315 491.102 499.402 484.338 514.083 496.727Z" fill="#F99746"/>
<path d="M603.379 492.063C603.379 492.063 604.163 489.5 604.199 489.037C604.235 488.574 604.199 488.361 603.807 488.681C603.415 489.002 602.809 489.82 602.988 490.604C603.166 491.387 603.379 492.063 603.379 492.063Z" fill="#FFB27D"/>
<path d="M362.926 260.414C362.178 261.269 362.071 262.23 362.463 263.227C363.14 265.113 365.385 267.214 368.022 269.314C368.343 269.599 368.663 269.813 368.913 270.062C368.984 270.133 369.055 270.169 369.127 270.24C369.162 270.275 369.234 270.347 369.269 270.382C371.692 272.625 370.801 273.159 375.184 277.716C380.173 282.913 383.629 283.02 384.592 282.522C385.411 282.13 383.736 279.353 381.883 276.256C381.776 276.114 381.705 275.971 381.598 275.793C381.349 275.366 381.099 274.975 380.85 274.547C378.676 270.809 379.211 269.065 379.745 263.511C380.173 258.99 386.765 238.342 386.765 238.342L377.18 236.705C377.18 236.705 374.293 253.152 371.122 255.679C369.412 257.032 367.523 257.032 365.884 258.065C365.777 258.136 365.67 258.207 365.528 258.278C364.637 258.955 363.675 259.56 362.926 260.414Z" fill="#FFC49C"/>
<path d="M362.926 260.414C362.178 261.268 362.071 262.23 362.463 263.226C363.283 265.113 365.492 267.214 368.022 269.278C368.343 269.563 368.628 269.812 368.913 270.026C368.984 270.097 369.055 270.133 369.127 270.204C369.162 270.24 369.234 270.311 369.269 270.346C371.692 272.589 370.801 273.123 375.184 277.68C380.173 282.878 383.629 282.984 384.592 282.486C385.411 282.094 383.736 279.318 381.883 276.22C380.921 275.864 376.396 274.049 372.975 269.67C369.982 265.825 367.951 260.912 365.92 258.064C365.813 258.136 365.706 258.207 365.563 258.278C364.637 258.954 363.675 259.56 362.926 260.414Z" fill="#233862"/>
<path d="M440.144 254.469C440.749 257.424 444.954 256.925 449.658 255.786C454.361 254.647 453.257 256 459.956 255.252C466.655 254.505 468.686 252.013 468.9 251.016C469.078 250.126 465.764 249.805 462.236 249.414C461.773 249.378 461.345 249.307 460.882 249.236C456.891 248.737 453.934 246.139 450.299 244.038C446.843 242.045 441.711 233.821 441.711 233.821L432.518 234.533C432.518 234.533 437.329 241.831 439.217 245.035C440.322 246.922 440.25 249.378 440.108 251.301C440.001 252.369 439.93 253.401 440.144 254.469Z" fill="#FFC49C"/>
<path d="M449.658 255.751C454.361 254.611 453.257 255.964 459.956 255.217C466.655 254.469 468.686 251.977 468.9 250.98C469.078 250.09 465.764 249.77 462.236 249.378L462.201 249.449C462.201 249.449 458.174 252.297 452.615 252.44C448.054 252.547 443.244 251.265 440.108 251.301C440.037 252.333 439.965 253.401 440.179 254.433C440.714 257.424 444.954 256.925 449.658 255.751Z" fill="#233862"/>
<path d="M404.938 195.765L396.35 218.869L385.126 249.022C385.126 249.022 382.097 249.307 379.175 248.488C376.502 247.705 373.402 245.676 373.402 245.676C373.402 245.676 376.502 213.315 382.311 194.732C383.807 189.962 385.482 186.117 387.299 183.945C396.35 173.301 404.938 195.765 404.938 195.765Z" fill="#ED7D2B"/>
<path d="M396.208 159.097C390.863 157.352 376.04 159.417 360.717 162.336C359.328 162.585 357.938 161.98 357.19 160.77L355.052 157.21L320.238 154.504C320.238 154.504 311.258 174.903 315.071 191.884C315.997 196.049 321.093 201.425 328.861 201.923C350.669 203.276 365.385 195.729 388.012 187.755C391.932 186.366 393.749 195.124 397.847 203.703C401.945 212.283 436.331 241.724 436.331 241.724C436.331 241.724 441.605 241.76 443.814 240.977C446.166 240.087 447.021 238.947 447.021 238.947C447.021 238.947 408.894 163.191 396.208 159.097Z" fill="#F99746"/>
<path d="M353.662 55.9277C349.208 53.5781 342.402 53.2577 341.297 53.1153C328.113 51.3353 320.167 70.4881 319.703 76.2909C318.848 86.9709 313.182 88.6085 305.2 95.3013C289.201 108.723 293.905 124.351 302.635 130.154C307.873 133.643 317.138 130.154 317.138 130.154C317.28 130.26 342.437 116.092 354.802 109.292C373.403 106.658 365.029 61.8729 353.662 55.9277Z" fill="#233862"/>
<path d="M344.433 103.489C344.504 103.525 338.34 105.625 334.206 103.81C330.322 102.101 327.4 95.7285 327.471 95.7285C329.218 95.6573 331.177 94.1265 332.638 84.0161L333.387 84.3009L346.001 88.8221C346.001 88.8221 345.074 92.8805 344.504 96.7253C344.005 99.9649 343.756 103.062 344.433 103.489Z" fill="#FFB27D"/>
<path d="M346 88.8222C346 88.8222 345.359 91.7058 344.682 95.6218C337.448 94.3046 334.42 88.217 333.386 84.301L346 88.8222Z" fill="#ED975D"/>
<path d="M347.889 92.845C347.889 92.845 330.642 90.5311 332.246 79.8155C333.849 69.0999 332.709 61.5883 343.791 62.6207C354.873 63.6531 356.405 68.0675 356.726 71.7699C357.082 75.4723 352.414 93.1654 347.889 92.845Z" fill="#FFB27D"/>
<path d="M356.12 65.8957C356.12 65.8957 345.074 75.4009 337.555 76.1841C330.037 76.9673 327.186 74.5465 327.186 74.5465C327.186 74.5465 331.605 70.8797 334.277 64.9345C335.061 63.1901 336.736 61.9797 338.624 61.8373C344.005 61.3389 354.16 61.1253 356.12 65.8957Z" fill="#233862"/>
<path d="M349.208 65.0416C349.208 65.0416 352.913 68.6016 354.054 71.2716C355.194 73.8348 355.515 79.9224 354.624 82.3788C354.624 82.3788 360.396 71.2004 357.118 65.7536C353.662 59.9508 349.208 65.0416 349.208 65.0416Z" fill="#233862"/>
<path d="M358.971 128.908C360.29 160.022 358.187 158.313 355.016 159.809C353.911 160.343 351.524 161.09 348.103 161.304C337.377 162.016 318.563 160.236 317.85 158.278C315.392 151.443 317.138 149.307 315.071 138.84C314.857 137.737 314.608 136.526 314.287 135.209C312.577 128.018 310.902 125.561 316.995 114.027C322.518 103.561 328.255 95.0521 328.79 95.3725C343.364 104.023 344.54 96.7609 344.54 96.7609C344.54 96.7609 358.223 111.891 358.971 128.908Z" fill="#AEC3FF"/>
<path d="M396.35 218.869L385.126 249.022C385.126 249.022 382.097 249.307 379.175 248.488C376.502 247.705 373.402 245.676 373.402 245.676C373.402 245.676 376.502 213.315 382.311 194.732L396.35 218.869Z" fill="#F99746"/>
<path d="M344.504 96.7253C344.504 96.7253 359.506 99.2529 361.287 105.732C363.033 112.176 373.403 150.125 373.403 150.125C373.403 150.125 365.777 151.478 362.249 147.989C358.722 144.465 349.991 115.309 349.991 115.309L344.504 96.7253Z" fill="#AEC3FF"/>
<path d="M348.067 161.304C337.342 162.016 318.527 160.236 317.815 158.278C315.356 151.443 317.102 149.307 315.035 138.84L320.202 124.315C320.202 124.315 319.347 140.513 324.122 144.75C328.897 149.022 343.684 152.973 346.001 156.533C347.141 158.207 347.853 159.915 348.067 161.304Z" fill="#94B0ED"/>
<path d="M335.809 154.504C335.809 154.504 346.357 152.155 348.067 153.08C349.777 154.006 353.946 157.423 354.445 158.598C354.98 159.773 350.668 157.708 349.243 157.317C348.316 157.067 345.929 157.886 344.753 158.313C339.764 159.987 336.7 159.132 336.7 159.132L335.809 154.504Z" fill="#FFB27D"/>
<path d="M328.754 95.3369C328.754 95.3369 314.572 96.2269 309.655 103.062C302.742 112.71 289.023 153.757 296.898 159.203C305.735 165.362 337.163 160.805 337.163 160.805C337.163 160.805 338.197 155.928 336.771 153.543C335.346 151.158 311.686 147.349 310.581 146.281C309.476 145.213 324.229 125.027 324.229 121.752C324.193 118.513 328.754 95.3369 328.754 95.3369Z" fill="#AEC3FF"/>
<path d="M348.602 156.035C348.602 156.035 350.811 158.883 351.523 159.239C352.236 159.595 352.735 159.488 352.735 159.488L351.238 156.818L348.602 156.035Z" fill="#FFB27D"/>
<path d="M348.067 153.08L354.517 156.213C354.517 156.213 354.232 156.676 353.448 156.64C352.664 156.604 350.669 155.857 350.669 155.857L348.067 153.08Z" fill="#FFB27D"/>
<path d="M351.523 163.582H402.444L417.766 125.526H366.917L351.523 163.582Z" fill="#2B478B"/>
<path d="M403.049 162.087H335.809V163.582H402.443L403.049 162.087Z" fill="#2B478B"/>
<path d="M389.58 144.572C389.972 143.219 389.188 142.151 387.834 142.151C386.48 142.151 385.09 143.219 384.698 144.572C384.306 145.924 385.09 146.992 386.444 146.992C387.798 146.992 389.224 145.889 389.58 144.572Z" fill="#EBF3FA"/>
<path d="M769.823 600.999H1.2834C0.784536 600.999 0.356934 600.572 0.356934 600.074V599.647C0.356934 599.148 0.784536 598.721 1.2834 598.721H769.823C770.322 598.721 770.75 599.148 770.75 599.647V600.074C770.75 600.572 770.322 600.999 769.823 600.999Z" fill="#2E3552"/>
</svg>
