<svg width="1440" height="179" viewBox="0 0 1440 179" fill="none" xmlns="http://www.w3.org/2000/svg">
<path d="M180 88.9706C180 65.5439 170.518 43.0766 153.64 26.5114C136.761 9.94615 113.869 0.639894 90 0.639893C66.1305 0.639891 43.2387 9.94614 26.3604 26.5114C9.48212 43.0766 3.60419e-06 65.5439 0 88.9706L90 88.9706H180Z" fill="#4354F2"/>
<path d="M540 89.9521C540 66.5253 530.518 44.058 513.64 27.4928C496.761 10.9276 473.869 1.62134 450 1.62134C426.131 1.62134 403.239 10.9276 386.36 27.4928C369.482 44.058 360 66.5253 360 89.9521L450 89.9521H540Z" fill="#4354F2"/>
<path d="M900 89.9521C900 66.5253 890.518 44.058 873.64 27.4928C856.761 10.9276 833.869 1.62134 810 1.62134C786.131 1.62134 763.239 10.9276 746.36 27.4928C729.482 44.058 720 66.5253 720 89.9521L810 89.9521H900Z" fill="#4354F2"/>
<path d="M1260 89.9521C1260 66.5253 1250.52 44.058 1233.64 27.4928C1216.76 10.9276 1193.87 1.62134 1170 1.62134C1146.13 1.62134 1123.24 10.9276 1106.36 27.4928C1089.48 44.058 1080 66.5253 1080 89.9521L1170 89.9521H1260Z" fill="#4354F2"/>
<path d="M180 88.9705C180 112.397 189.482 134.865 206.36 151.43C223.239 167.995 246.131 177.301 270 177.301C293.869 177.301 316.761 167.995 333.64 151.43C350.518 134.865 360 112.397 360 88.9705L270 88.9705L180 88.9705Z" fill="#4354F2"/>
<path d="M540 89.952C540 113.379 549.482 135.846 566.36 152.411C583.239 168.976 606.131 178.283 630 178.283C653.869 178.283 676.761 168.976 693.64 152.411C710.518 135.846 720 113.379 720 89.952L630 89.952L540 89.952Z" fill="#4354F2"/>
<path d="M900 89.952C900 113.379 909.482 135.846 926.36 152.411C943.239 168.976 966.131 178.283 990 178.283C1013.87 178.283 1036.76 168.976 1053.64 152.411C1070.52 135.846 1080 113.379 1080 89.952L990 89.952L900 89.952Z" fill="#4354F2"/>
<path d="M1260 89.952C1260 113.379 1269.48 135.846 1286.36 152.411C1303.24 168.976 1326.13 178.283 1350 178.283C1373.87 178.283 1396.76 168.976 1413.64 152.411C1430.52 135.846 1440 113.379 1440 89.952L1350 89.952L1260 89.952Z" fill="#4354F2"/>
<path d="M609.4 155.833C603.733 155.833 599.404 153.702 596.412 149.441C593.42 145.134 591.924 139.014 591.924 131.081C591.924 123.057 593.42 116.96 596.412 112.789C599.404 108.618 603.733 106.533 609.4 106.533C615.112 106.533 619.441 108.618 622.388 112.789C625.38 116.96 626.876 123.034 626.876 131.013C626.876 138.992 625.38 145.134 622.388 149.441C619.396 153.702 615.067 155.833 609.4 155.833ZM609.4 148.693C612.483 148.693 614.749 147.265 616.2 144.409C617.696 141.553 618.444 137.088 618.444 131.013C618.444 124.938 617.696 120.541 616.2 117.821C614.749 115.056 612.483 113.673 609.4 113.673C606.363 113.673 604.096 115.056 602.6 117.821C601.104 120.541 600.356 124.938 600.356 131.013C600.356 137.088 601.104 141.553 602.6 144.409C604.096 147.265 606.363 148.693 609.4 148.693ZM657.857 155.697C656.497 155.697 655.432 155.334 654.661 154.609C653.891 153.838 653.505 152.75 653.505 151.345V146.041H636.709C635.304 146.041 634.171 145.746 633.309 145.157C632.493 144.568 632.085 143.661 632.085 142.437C632.085 141.666 632.267 140.85 632.629 139.989C633.037 139.128 633.74 137.994 634.737 136.589L653.369 109.593C654.004 108.641 654.707 107.916 655.477 107.417C656.248 106.918 657.132 106.669 658.129 106.669C659.308 106.669 660.283 107.032 661.053 107.757C661.824 108.437 662.209 109.525 662.209 111.021V138.833H665.541C668.171 138.833 669.485 140.034 669.485 142.437C669.485 144.84 668.171 146.041 665.541 146.041H662.209V151.345C662.209 152.75 661.824 153.838 661.053 154.609C660.283 155.334 659.217 155.697 657.857 155.697ZM653.505 138.833V120.541L640.993 138.833H653.505Z" fill="white"/>
<path d="M969.4 155.706C963.733 155.706 959.404 153.576 956.412 149.314C953.42 145.008 951.924 138.888 951.924 130.954C951.924 122.93 953.42 116.833 956.412 112.662C959.404 108.492 963.733 106.406 969.4 106.406C975.112 106.406 979.441 108.492 982.388 112.662C985.38 116.833 986.876 122.908 986.876 130.886C986.876 138.865 985.38 145.008 982.388 149.314C979.396 153.576 975.067 155.706 969.4 155.706ZM969.4 148.566C972.483 148.566 974.749 147.138 976.2 144.282C977.696 141.426 978.444 136.961 978.444 130.886C978.444 124.812 977.696 120.414 976.2 117.694C974.749 114.929 972.483 113.546 969.4 113.546C966.363 113.546 964.096 114.929 962.6 117.694C961.104 120.414 960.356 124.812 960.356 130.886C960.356 136.961 961.104 141.426 962.6 144.282C964.096 147.138 966.363 148.566 969.4 148.566ZM1011.94 155.706C1006 155.706 1001.4 153.621 998.137 149.45C994.919 145.28 993.309 139.432 993.309 131.906C993.309 123.792 995.123 117.513 998.749 113.07C1002.42 108.628 1007.48 106.406 1013.91 106.406C1015.91 106.406 1017.93 106.724 1019.97 107.358C1022.05 107.948 1024 108.854 1025.81 110.078C1026.72 110.668 1027.24 111.438 1027.38 112.39C1027.51 113.297 1027.38 114.181 1026.97 115.042C1026.56 115.858 1025.93 116.425 1025.07 116.742C1024.25 117.014 1023.3 116.833 1022.21 116.198C1020.67 115.292 1019.22 114.657 1017.86 114.294C1016.5 113.932 1015.14 113.75 1013.78 113.75C1009.83 113.75 1006.82 115.133 1004.73 117.898C1002.65 120.664 1001.61 124.789 1001.61 130.274V132.246C1002.56 129.753 1004.1 127.804 1006.23 126.398C1008.36 124.993 1010.81 124.29 1013.57 124.29C1016.34 124.29 1018.79 124.948 1020.92 126.262C1023.05 127.577 1024.73 129.39 1025.95 131.702C1027.17 134.014 1027.79 136.666 1027.79 139.658C1027.79 142.741 1027.11 145.506 1025.75 147.954C1024.43 150.357 1022.57 152.261 1020.17 153.666C1017.81 155.026 1015.07 155.706 1011.94 155.706ZM1011.47 148.77C1013.91 148.77 1015.89 147.977 1017.38 146.39C1018.92 144.758 1019.69 142.628 1019.69 139.998C1019.69 137.369 1018.92 135.238 1017.38 133.606C1015.89 131.974 1013.91 131.158 1011.47 131.158C1009.02 131.158 1007.02 131.974 1005.48 133.606C1003.99 135.238 1003.24 137.369 1003.24 139.998C1003.24 142.628 1003.99 144.758 1005.48 146.39C1007.02 147.977 1009.02 148.77 1011.47 148.77Z" fill="white"/>
<path d="M1329.4 155.706C1323.73 155.706 1319.4 153.576 1316.41 149.314C1313.42 145.008 1311.92 138.888 1311.92 130.954C1311.92 122.93 1313.42 116.833 1316.41 112.662C1319.4 108.492 1323.73 106.406 1329.4 106.406C1335.11 106.406 1339.44 108.492 1342.39 112.662C1345.38 116.833 1346.88 122.908 1346.88 130.886C1346.88 138.865 1345.38 145.008 1342.39 149.314C1339.4 153.576 1335.07 155.706 1329.4 155.706ZM1329.4 148.566C1332.48 148.566 1334.75 147.138 1336.2 144.282C1337.7 141.426 1338.44 136.961 1338.44 130.886C1338.44 124.812 1337.7 120.414 1336.2 117.694C1334.75 114.929 1332.48 113.546 1329.4 113.546C1326.36 113.546 1324.1 114.929 1322.6 117.694C1321.1 120.414 1320.36 124.812 1320.36 130.886C1320.36 136.961 1321.1 141.426 1322.6 144.282C1324.1 147.138 1326.36 148.566 1329.4 148.566ZM1370.17 155.706C1364.6 155.706 1360.22 154.505 1357.05 152.102C1353.92 149.7 1352.36 146.368 1352.36 142.106C1352.36 139.205 1353.11 136.734 1354.6 134.694C1356.14 132.654 1358.14 131.226 1360.59 130.41C1358.41 129.458 1356.69 128.008 1355.42 126.058C1354.19 124.109 1353.58 121.865 1353.58 119.326C1353.58 115.292 1355.08 112.141 1358.07 109.874C1361.06 107.562 1365.1 106.406 1370.17 106.406C1375.3 106.406 1379.35 107.562 1382.35 109.874C1385.34 112.141 1386.83 115.292 1386.83 119.326C1386.83 121.865 1386.2 124.132 1384.93 126.126C1383.71 128.076 1382.03 129.504 1379.9 130.41C1382.35 131.226 1384.29 132.677 1385.75 134.762C1387.24 136.802 1387.99 139.25 1387.99 142.106C1387.99 146.368 1386.4 149.7 1383.23 152.102C1380.1 154.505 1375.75 155.706 1370.17 155.706ZM1370.17 127.35C1372.85 127.35 1374.93 126.716 1376.43 125.446C1377.97 124.177 1378.74 122.432 1378.74 120.21C1378.74 118.034 1377.97 116.334 1376.43 115.11C1374.93 113.841 1372.85 113.206 1370.17 113.206C1367.5 113.206 1365.41 113.841 1363.92 115.11C1362.42 116.334 1361.67 118.034 1361.67 120.21C1361.67 122.432 1362.42 124.177 1363.92 125.446C1365.41 126.716 1367.5 127.35 1370.17 127.35ZM1370.17 148.906C1376.66 148.906 1379.9 146.436 1379.9 141.494C1379.9 136.598 1376.66 134.15 1370.17 134.15C1367 134.15 1364.57 134.762 1362.9 135.986C1361.27 137.21 1360.45 139.046 1360.45 141.494C1360.45 143.942 1361.27 145.801 1362.9 147.07C1364.57 148.294 1367 148.906 1370.17 148.906Z" fill="white"/>
<path d="M789.4 75.2271C783.733 75.2271 779.404 73.0965 776.412 68.8351C773.42 64.5285 771.924 58.4085 771.924 50.4751C771.924 42.4511 773.42 36.3538 776.412 32.1831C779.404 28.0125 783.733 25.9271 789.4 25.9271C795.112 25.9271 799.441 28.0125 802.388 32.1831C805.38 36.3538 806.876 42.4285 806.876 50.4071C806.876 58.3858 805.38 64.5285 802.388 68.8351C799.396 73.0965 795.067 75.2271 789.4 75.2271ZM789.4 68.0871C792.483 68.0871 794.749 66.6591 796.2 63.8031C797.696 60.9471 798.444 56.4818 798.444 50.4071C798.444 44.3325 797.696 39.9351 796.2 37.2151C794.749 34.4498 792.483 33.0671 789.4 33.0671C786.363 33.0671 784.096 34.4498 782.6 37.2151C781.104 39.9351 780.356 44.3325 780.356 50.4071C780.356 56.4818 781.104 60.9471 782.6 63.8031C784.096 66.6591 786.363 68.0871 789.4 68.0871ZM830.581 75.2271C828.179 75.2271 825.731 74.9098 823.237 74.2751C820.744 73.6405 818.455 72.6658 816.369 71.3511C815.281 70.6711 814.624 69.8551 814.397 68.9031C814.216 67.9058 814.352 66.9991 814.805 66.1831C815.259 65.3218 815.916 64.7551 816.777 64.4831C817.684 64.1658 818.704 64.3245 819.837 64.9591C821.515 65.9111 823.215 66.6365 824.937 67.1351C826.66 67.6338 828.496 67.8831 830.445 67.8831C833.301 67.8831 835.523 67.1578 837.109 65.7071C838.741 64.2111 839.557 62.2165 839.557 59.7231C839.557 57.1845 838.787 55.1445 837.245 53.6031C835.704 52.0165 833.596 51.2231 830.921 51.2231C829.471 51.2231 828.065 51.4725 826.705 51.9711C825.345 52.4245 824.008 53.2405 822.693 54.4191C822.285 54.7818 821.764 55.1445 821.129 55.5071C820.495 55.8245 819.815 55.9831 819.089 55.9831C816.777 55.9831 815.621 54.8725 815.621 52.6511V30.4151C815.621 27.8764 816.891 26.6071 819.429 26.6071H841.801C844.34 26.6071 845.609 27.8085 845.609 30.2111C845.609 32.6138 844.34 33.8151 841.801 33.8151H824.121V46.8031C826.524 44.9898 829.471 44.0831 832.961 44.0831C835.999 44.0831 838.628 44.7405 840.849 46.0551C843.116 47.3245 844.861 49.1151 846.085 51.4271C847.355 53.6938 847.989 56.3458 847.989 59.3831C847.989 62.5111 847.287 65.2765 845.881 67.6791C844.476 70.0365 842.459 71.8951 839.829 73.2551C837.245 74.5698 834.163 75.2271 830.581 75.2271Z" fill="white"/>
<path d="M1149.4 75.2271C1143.73 75.2271 1139.4 73.0965 1136.41 68.8351C1133.42 64.5285 1131.92 58.4085 1131.92 50.4751C1131.92 42.4511 1133.42 36.3538 1136.41 32.1831C1139.4 28.0125 1143.73 25.9271 1149.4 25.9271C1155.11 25.9271 1159.44 28.0125 1162.39 32.1831C1165.38 36.3538 1166.88 42.4285 1166.88 50.4071C1166.88 58.3858 1165.38 64.5285 1162.39 68.8351C1159.4 73.0965 1155.07 75.2271 1149.4 75.2271ZM1149.4 68.0871C1152.48 68.0871 1154.75 66.6591 1156.2 63.8031C1157.7 60.9471 1158.44 56.4818 1158.44 50.4071C1158.44 44.3325 1157.7 39.9351 1156.2 37.2151C1154.75 34.4498 1152.48 33.0671 1149.4 33.0671C1146.36 33.0671 1144.1 34.4498 1142.6 37.2151C1141.1 39.9351 1140.36 44.3325 1140.36 50.4071C1140.36 56.4818 1141.1 60.9471 1142.6 63.8031C1144.1 66.6591 1146.36 68.0871 1149.4 68.0871ZM1181.47 75.0911C1179.88 75.0911 1178.75 74.5471 1178.07 73.4591C1177.39 72.3711 1177.46 71.0565 1178.27 69.5151L1197.25 33.8831H1176.78C1174.24 33.8831 1172.97 32.6818 1172.97 30.2791C1172.97 27.8311 1174.24 26.6071 1176.78 26.6071H1203.09C1204.32 26.6071 1205.31 26.9244 1206.09 27.5591C1206.86 28.1938 1207.24 29.1004 1207.24 30.2791C1207.24 31.2765 1207.11 32.1605 1206.83 32.9311C1206.56 33.6565 1206.2 34.4498 1205.75 35.3111L1186.43 72.2351C1185.44 74.1391 1183.78 75.0911 1181.47 75.0911Z" fill="white"/>
<path d="M69.4 75.1591C63.7333 75.1591 59.404 73.0738 56.412 68.9031C53.42 64.6871 51.924 58.5671 51.924 50.5431C51.924 42.5645 53.42 36.4898 56.412 32.3191C59.404 28.1031 63.7333 25.9951 69.4 25.9951C75.0667 25.9951 79.396 28.1031 82.388 32.3191C85.38 36.4898 86.876 42.5645 86.876 50.5431C86.876 58.5218 85.38 64.6191 82.388 68.8351C79.396 73.0511 75.0667 75.1591 69.4 75.1591ZM69.4 68.2911C72.4827 68.2911 74.7267 66.8858 76.132 64.0751C77.5373 61.2191 78.24 56.7085 78.24 50.5431C78.24 44.3325 77.5373 39.8445 76.132 37.0791C74.7267 34.2685 72.4827 32.8631 69.4 32.8631C66.3173 32.8631 64.0733 34.2685 62.668 37.0791C61.2627 39.8898 60.56 44.3778 60.56 50.5431C60.56 56.7085 61.2627 61.2191 62.668 64.0751C64.0733 66.8858 66.3173 68.2911 69.4 68.2911ZM123.841 67.4751C126.561 67.4751 127.921 68.6311 127.921 70.9431C127.921 73.3458 126.561 74.5471 123.841 74.5471H100.857C98.0921 74.5471 96.7094 73.3458 96.7094 70.9431C96.7094 68.6311 98.0921 67.4751 100.857 67.4751H107.929V36.4671L101.401 40.4791C100.767 40.8418 100.2 41.0231 99.7014 41.0231C98.7494 41.0231 97.9334 40.6151 97.2534 39.7991C96.6188 38.9831 96.3014 38.0765 96.3014 37.0791C96.3014 35.7645 96.8908 34.7445 98.0694 34.0191L108.609 27.4911C109.969 26.6751 111.261 26.2671 112.485 26.2671C113.755 26.2671 114.775 26.6525 115.545 27.4231C116.316 28.1938 116.701 29.2591 116.701 30.6191V67.4751H123.841Z" fill="white"/>
<path d="M249.4 154.693C243.733 154.693 239.404 152.562 236.412 148.301C233.42 143.994 231.924 137.874 231.924 129.941C231.924 121.917 233.42 115.82 236.412 111.649C239.404 107.478 243.733 105.393 249.4 105.393C255.112 105.393 259.441 107.478 262.388 111.649C265.38 115.82 266.876 121.894 266.876 129.873C266.876 137.852 265.38 143.994 262.388 148.301C259.396 152.562 255.067 154.693 249.4 154.693ZM249.4 147.553C252.483 147.553 254.749 146.125 256.2 143.269C257.696 140.413 258.444 135.948 258.444 129.873C258.444 123.798 257.696 119.401 256.2 116.681C254.749 113.916 252.483 112.533 249.4 112.533C246.363 112.533 244.096 113.916 242.6 116.681C241.104 119.401 240.356 123.798 240.356 129.873C240.356 135.948 241.104 140.413 242.6 143.269C244.096 146.125 246.363 147.553 249.4 147.553ZM278.817 154.013C277.367 154.013 276.301 153.696 275.621 153.061C274.987 152.381 274.669 151.406 274.669 150.137C274.669 149.366 274.873 148.618 275.281 147.893C275.689 147.168 276.279 146.397 277.049 145.581L290.717 131.029C292.803 128.853 294.299 126.881 295.205 125.113C296.112 123.3 296.565 121.486 296.565 119.673C296.565 115.049 293.777 112.737 288.201 112.737C286.66 112.737 285.119 112.964 283.577 113.417C282.036 113.825 280.472 114.55 278.885 115.593C277.888 116.273 276.959 116.477 276.097 116.205C275.236 115.933 274.579 115.389 274.125 114.573C273.672 113.712 273.513 112.805 273.649 111.853C273.831 110.901 274.42 110.085 275.417 109.405C277.367 108.09 279.543 107.093 281.945 106.413C284.393 105.733 286.841 105.393 289.289 105.393C294.412 105.393 298.333 106.549 301.053 108.861C303.819 111.173 305.201 114.482 305.201 118.789C305.201 121.69 304.499 124.478 303.093 127.153C301.733 129.828 299.58 132.706 296.633 135.789L286.093 146.805H303.841C306.335 146.805 307.581 147.984 307.581 150.341C307.581 152.789 306.335 154.013 303.841 154.013H278.817Z" fill="white"/>
<path d="M429.4 75.2271C423.733 75.2271 419.404 73.0965 416.412 68.8351C413.42 64.5285 411.924 58.4085 411.924 50.4751C411.924 42.4511 413.42 36.3538 416.412 32.1831C419.404 28.0125 423.733 25.9271 429.4 25.9271C435.112 25.9271 439.441 28.0125 442.388 32.1831C445.38 36.3538 446.876 42.4285 446.876 50.4071C446.876 58.3858 445.38 64.5285 442.388 68.8351C439.396 73.0965 435.067 75.2271 429.4 75.2271ZM429.4 68.0871C432.483 68.0871 434.749 66.6591 436.2 63.8031C437.696 60.9471 438.444 56.4818 438.444 50.4071C438.444 44.3325 437.696 39.9351 436.2 37.2151C434.749 34.4498 432.483 33.0671 429.4 33.0671C426.363 33.0671 424.096 34.4498 422.6 37.2151C421.104 39.9351 420.356 44.3325 420.356 50.4071C420.356 56.4818 421.104 60.9471 422.6 63.8031C424.096 66.6591 426.363 68.0871 429.4 68.0871ZM469.221 75.2271C466.773 75.2271 464.235 74.9098 461.605 74.2751C458.976 73.6405 456.687 72.6885 454.737 71.4191C453.604 70.6485 452.924 69.7871 452.697 68.8351C452.471 67.8378 452.584 66.9538 453.037 66.1831C453.491 65.3671 454.171 64.8231 455.077 64.5511C456.029 64.2791 457.095 64.4605 458.273 65.0951C460.132 66.0925 461.923 66.8178 463.645 67.2711C465.368 67.6791 467.136 67.8831 468.949 67.8831C475.069 67.8831 478.129 65.4805 478.129 60.6751C478.129 58.4085 477.359 56.7311 475.817 55.6431C474.321 54.5098 472.123 53.9431 469.221 53.9431H464.869C463.6 53.9431 462.625 53.6258 461.945 52.9911C461.311 52.3565 460.993 51.4725 460.993 50.3391C460.993 49.2058 461.311 48.3218 461.945 47.6871C462.625 47.0525 463.6 46.7351 464.869 46.7351H468.405C470.944 46.7351 472.961 46.1231 474.457 44.8991C475.953 43.6298 476.701 41.8845 476.701 39.6631C476.701 37.5778 475.999 35.9911 474.593 34.9031C473.233 33.8151 471.239 33.2711 468.609 33.2711C466.932 33.2711 465.345 33.4751 463.849 33.8831C462.399 34.2458 460.789 34.9485 459.021 35.9911C457.979 36.6258 457.027 36.8071 456.165 36.5351C455.304 36.2178 454.624 35.6738 454.125 34.9031C453.672 34.0871 453.536 33.2031 453.717 32.2511C453.899 31.2991 454.533 30.4831 455.621 29.8031C459.611 27.2191 464.189 25.9271 469.357 25.9271C474.344 25.9271 478.22 27.0605 480.985 29.3271C483.751 31.5484 485.133 34.6538 485.133 38.6431C485.133 41.2271 484.476 43.4938 483.161 45.4431C481.847 47.3925 480.056 48.7978 477.789 49.6591C480.555 50.4298 482.708 51.8578 484.249 53.9431C485.791 55.9831 486.561 58.4765 486.561 61.4231C486.561 65.6845 485.02 69.0618 481.937 71.5551C478.855 74.0031 474.616 75.2271 469.221 75.2271Z" fill="white"/>
</svg>
